<svg width="13" height="18" fill="none" xmlns="http://www.w3.org/2000/svg"><path d="M6.942 13.813a.564.564 0 00.163.767l5.061 3.332a.53.53 0 00.63-.034.565.565 0 00.172-.623L7.009.366A.542.542 0 006.5 0a.543.543 0 00-.51.366L.033 17.256a.564.564 0 00.172.622.53.53 0 00.63.034l5.06-3.331a.564.564 0 00.164-.768.534.534 0 00-.748-.167l-3.715 2.446L6.5 2.187l4.906 13.905-3.716-2.446a.534.534 0 00-.748.167z" fill="url(#paint0_linear)"/><defs><linearGradient id="paint0_linear" x1="10.934" y1="0" x2="-.36" y2=".277" gradientUnits="userSpaceOnUse"><stop stop-color="#FFF9C6"/><stop offset="1" stop-color="#FFD8AB"/></linearGradient></defs></svg>