<svg width="110" height="106" fill="none" xmlns="http://www.w3.org/2000/svg"><path opacity=".3" d="M33.034 1L1.048 104.76h82.963L109 52.88 84.011 1H33.034z" stroke="url(#paint0_linear)" stroke-width=".5"/><path d="M.877 66.016A.875.875 0 010 65.143c0-4.335 3.543-7.861 7.898-7.861.485 0 .878.39.878.873a.875.875 0 01-.878.874c-3.387 0-6.143 2.742-6.143 6.114a.875.875 0 01-.878.873z" fill="url(#paint1_linear)"/><path d="M39.482 66.016a.875.875 0 01-.877-.874c0-3.37-2.756-6.113-6.142-6.113a.874.874 0 110-1.746c4.354 0 7.896 3.525 7.896 7.86a.875.875 0 01-.877.873z" fill="url(#paint2_linear)"/><path d="M7.898 59.029a.875.875 0 01-.877-.874c0-.482.392-.873.877-.873h4.386c.484 0 .877.39.877.872a.875.875 0 01-.877.874H7.898z" fill="url(#paint3_linear)"/><path d="M.878 73a.875.875 0 01-.877-.874L0 65.143c0-.482.392-.873.877-.873s.878.39.878.873v6.983a.875.875 0 01-.877.873z" fill="url(#paint4_linear)"/><path d="M39.482 73a.874.874 0 01-.877-.874v-6.984c0-.483.392-.873.877-.873s.877.39.877.873v6.984a.874.874 0 01-.877.873z" fill="url(#paint5_linear)"/><path d="M14.038 57.281a.875.875 0 01-.877-.873V53.15c0-.482.392-.873.877-.873s.877.39.877.873v3.257a.875.875 0 01-.877.873z" fill="url(#paint6_linear)"/><path d="M26.321 57.281a.874.874 0 01-.877-.873V53.15c0-.482.392-.873.877-.873s.878.39.878.873v3.257a.875.875 0 01-.878.873z" fill="url(#paint7_linear)"/><path d="M20.18 55.535c-7.74 0-14.038-6.268-14.038-13.972 0-.483.392-.873.877-.873s.877.39.877.873c0 6.742 5.51 12.226 12.284 12.226 6.773 0 12.283-5.484 12.283-12.226 0-.483.392-.873.877-.873s.878.39.878.873c0 7.704-6.298 13.972-14.038 13.972z" fill="url(#paint8_linear)"/><path d="M7.019 42.437h-.003a.875.875 0 01-.874-.876l.014-4.354a.875.875 0 01.877-.87h.003a.875.875 0 01.874.876l-.014 4.353a.875.875 0 01-.877.87z" fill="url(#paint9_linear)"/><path d="M33.34 42.437a.875.875 0 01-.877-.874V37.21c0-.483.392-.873.877-.873s.878.39.878.873v4.353a.875.875 0 01-.878.873z" fill="url(#paint10_linear)"/><path d="M15.404 60.776a.88.88 0 01-.77-.452.87.87 0 01.345-1.186l4.776-2.622a.881.881 0 011.192.343.87.87 0 01-.344 1.187l-4.776 2.622a.875.875 0 01-.423.108z" fill="url(#paint11_linear)"/><path d="M24.954 60.776a.88.88 0 01-.422-.108l-4.776-2.622a.872.872 0 01-.345-1.187.883.883 0 011.192-.343l4.776 2.622a.873.873 0 01-.425 1.638z" fill="url(#paint12_linear)"/><path d="M10.528 60.776a.877.877 0 01-.62-.256.87.87 0 010-1.235l3.51-3.494a.88.88 0 011.24 0 .87.87 0 010 1.234l-3.51 3.495a.873.873 0 01-.62.256z" fill="url(#paint13_linear)"/><path d="M14.038 64.267a.877.877 0 01-.62-.256l-3.51-3.49a.87.87 0 010-1.236.88.88 0 011.24 0l3.51 3.492a.873.873 0 01-.62 1.49z" fill="url(#paint14_linear)"/><path d="M12.283 66.014a.877.877 0 01-.62-.256.87.87 0 010-1.235l1.755-1.746a.88.88 0 011.24 0 .87.87 0 010 1.234l-1.754 1.747a.874.874 0 01-.62.256z" fill="url(#paint15_linear)"/><path d="M17.548 73a.877.877 0 01-.702-.35l-5.265-6.986a.869.869 0 01.176-1.221.878.878 0 011.227.175l5.265 6.986a.869.869 0 01-.176 1.221.87.87 0 01-.525.175z" fill="url(#paint16_linear)"/><path d="M20.18 73a.877.877 0 01-.818-.557L13.22 56.724a.872.872 0 01.5-1.13.878.878 0 011.135.497l6.142 15.719A.872.872 0 0120.18 73z" fill="url(#paint17_linear)"/><path d="M29.83 60.776a.877.877 0 01-.62-.256l-3.509-3.495a.87.87 0 010-1.234.88.88 0 011.24 0l3.51 3.494a.873.873 0 01-.62 1.49z" fill="url(#paint18_linear)"/><path d="M26.321 64.267a.877.877 0 01-.62-.256.87.87 0 010-1.234l3.51-3.492a.88.88 0 011.24 0 .87.87 0 010 1.235l-3.51 3.491a.873.873 0 01-.62.256z" fill="url(#paint19_linear)"/><path d="M28.076 66.014a.877.877 0 01-.62-.256L25.7 64.011a.87.87 0 010-1.234.88.88 0 011.24 0l1.755 1.746a.874.874 0 01-.62 1.49z" fill="url(#paint20_linear)"/><path d="M22.81 73a.875.875 0 01-.7-1.396l5.264-6.986a.88.88 0 011.228-.175.87.87 0 01.175 1.222l-5.264 6.986a.872.872 0 01-.702.349z" fill="url(#paint21_linear)"/><path d="M20.18 73a.87.87 0 01-.817-1.19l6.142-15.718a.877.877 0 011.634.633l-6.142 15.719a.878.878 0 01-.817.556z" fill="url(#paint22_linear)"/><path d="M32.463 59.03h-4.387a.874.874 0 110-1.747h4.387c.485 0 .877.39.877.873a.874.874 0 01-.877.873z" fill="url(#paint23_linear)"/><path d="M17.45 66.014a.874.874 0 01-.808-1.213l1.852-4.365a.878.878 0 011.616.68l-1.852 4.364a.878.878 0 01-.808.534z" fill="url(#paint24_linear)"/><path d="M22.91 66.014a.876.876 0 01-.809-.534l-1.852-4.366a.871.871 0 01.467-1.144.878.878 0 011.15.465l1.851 4.366a.871.871 0 01-.808 1.213z" fill="url(#paint25_linear)"/><path d="M21.057 61.65h-1.755a.875.875 0 01-.877-.874c0-.483.392-.873.877-.873h1.755a.874.874 0 110 1.746z" fill="url(#paint26_linear)"/><path d="M21.057 61.65a.874.874 0 01-.667-1.44l1.755-2.05a.877.877 0 011.236-.098c.37.312.413.864.099 1.23l-1.755 2.05a.877.877 0 01-.668.307z" fill="url(#paint27_linear)"/><path d="M19.302 61.65a.876.876 0 01-.667-.308l-1.755-2.05a.87.87 0 01.098-1.231.877.877 0 011.236.098l1.755 2.05a.87.87 0 01-.098 1.23.87.87 0 01-.569.21z" fill="url(#paint28_linear)"/><path d="M33.34 34.574a.874.874 0 01-.877-.873c0-5.476-3.698-10.32-8.993-11.782a.872.872 0 11.47-1.683c6.05 1.67 10.278 7.208 10.278 13.466a.874.874 0 01-.878.872z" fill="url(#paint29_linear)"/><path d="M7.019 34.574a.874.874 0 01-.877-.873c0-6.274 4.24-11.814 10.31-13.474a.873.873 0 11.465 1.684c-5.311 1.452-9.02 6.3-9.02 11.79a.876.876 0 01-.878.873z" fill="url(#paint30_linear)"/><path d="M23.705 20.22a.908.908 0 01-.235-.03 12.512 12.512 0 00-6.555-.01.872.872 0 11-.465-1.684 14.234 14.234 0 017.487.01.872.872 0 01-.232 1.715z" fill="url(#paint31_linear)"/><path d="M34.23 38.083H6.157a.874.874 0 01-.878-.873v-3.495c0-.483.392-.873.878-.873H34.23c.485 0 .877.39.877.873v3.495a.874.874 0 01-.877.873zM7.034 36.337h26.32v-1.749H7.033v1.749z" fill="url(#paint32_linear)"/><path d="M16.683 24.984a.874.874 0 01-.877-.873v-4.773c0-.482.392-.873.877-.873.486 0 .878.39.878.873v4.773a.875.875 0 01-.878.873z" fill="url(#paint33_linear)"/><path d="M23.704 24.984a.875.875 0 01-.877-.873v-4.764c0-.483.392-.873.877-.873s.877.39.877.873v4.764a.875.875 0 01-.877.873z" fill="url(#paint34_linear)"/><path d="M44.736 56.414c-3.386 0-6.142-2.743-6.142-6.113 0-3.37 2.756-6.113 6.142-6.113.485 0 .877.39.877.873a.875.875 0 01-.877.874c-2.42 0-4.387 1.959-4.387 4.366 0 2.408 1.968 4.366 4.387 4.366a.874.874 0 110 1.747z" fill="url(#paint35_linear)"/><path d="M45.174 53.794a.874.874 0 110-1.746 3.067 3.067 0 003.071-3.057 3.067 3.067 0 00-3.07-3.056.875.875 0 01-.878-.873c0-.483.392-.874.877-.874 2.66 0 4.826 2.155 4.826 4.803s-2.165 4.803-4.826 4.803z" fill="url(#paint36_linear)"/><path d="M45.174 51.178a.874.874 0 110-1.747.44.44 0 00.44-.438.44.44 0 00-.44-.438.874.874 0 110-1.746c1.211 0 2.196.979 2.196 2.184a2.192 2.192 0 01-2.196 2.185z" fill="url(#paint37_linear)"/><path d="M44.736 53.794c-1.936 0-3.51-1.566-3.51-3.493 0-1.926 1.574-3.493 3.51-3.493a.874.874 0 110 1.747c-.968 0-1.755.783-1.755 1.746s.787 1.747 1.755 1.747a.874.874 0 110 1.746z" fill="url(#paint38_linear)"/><path d="M44.736 73a.874.874 0 01-.878-.873V55.54c0-.483.393-.873.878-.873s.877.39.877.873v16.586a.875.875 0 01-.877.873z" fill="url(#paint39_linear)"/><path d="M39.471 73a.874.874 0 01-.877-.874V50.3c0-.483.392-.873.877-.873.486 0 .878.39.878.873v21.825a.874.874 0 01-.877.873z" fill="url(#paint40_linear)"/><path d="M44.737 53.794a.875.875 0 01-.877-.873v-2.616c0-.483.392-.874.877-.874.486 0 .878.39.878.874v2.616a.875.875 0 01-.878.873z" fill="url(#paint41_linear)"/><path d="M45.174 51.178h-.437a.874.874 0 110-1.747h.437a.874.874 0 110 1.747z" fill="url(#paint42_linear)"/><path d="M45.174 53.794h-.438a.874.874 0 110-1.746h.438a.874.874 0 110 1.746z" fill="url(#paint43_linear)"/><path d="M45.174 48.555h-.438a.874.874 0 110-1.747h.438a.874.874 0 110 1.747z" fill="url(#paint44_linear)"/><path d="M49.123 73a.874.874 0 01-.878-.874V48.99c0-.483.392-.873.878-.873.485 0 .877.39.877.873v23.135a.874.874 0 01-.877.873z" fill="url(#paint45_linear)"/><path d="M45.174 45.935h-.438a.874.874 0 110-1.747h.438c.486 0 .878.39.878.873a.875.875 0 01-.878.874z" fill="url(#paint46_linear)"/><defs><linearGradient id="paint0_linear" x1="91.841" y1="1" x2="-1.884" y2="4.316" gradientUnits="userSpaceOnUse"><stop stop-color="#FFF9C6"/><stop offset="1" stop-color="#FFD8AB"/></linearGradient><linearGradient id="paint1_linear" x1="42.053" y1="18" x2="-1.371" y2="19.342" gradientUnits="userSpaceOnUse"><stop stop-color="#FFF9C6"/><stop offset="1" stop-color="#FFD8AB"/></linearGradient><linearGradient id="paint2_linear" x1="42.053" y1="18" x2="-1.371" y2="19.342" gradientUnits="userSpaceOnUse"><stop stop-color="#FFF9C6"/><stop offset="1" stop-color="#FFD8AB"/></linearGradient><linearGradient id="paint3_linear" x1="42.053" y1="18" x2="-1.371" y2="19.342" gradientUnits="userSpaceOnUse"><stop stop-color="#FFF9C6"/><stop offset="1" stop-color="#FFD8AB"/></linearGradient><linearGradient id="paint4_linear" x1="42.053" y1="18" x2="-1.371" y2="19.342" gradientUnits="userSpaceOnUse"><stop stop-color="#FFF9C6"/><stop offset="1" stop-color="#FFD8AB"/></linearGradient><linearGradient id="paint5_linear" x1="42.053" y1="18" x2="-1.371" y2="19.342" gradientUnits="userSpaceOnUse"><stop stop-color="#FFF9C6"/><stop offset="1" stop-color="#FFD8AB"/></linearGradient><linearGradient id="paint6_linear" x1="42.053" y1="18" x2="-1.371" y2="19.342" gradientUnits="userSpaceOnUse"><stop stop-color="#FFF9C6"/><stop offset="1" stop-color="#FFD8AB"/></linearGradient><linearGradient id="paint7_linear" x1="42.053" y1="18" x2="-1.371" y2="19.342" gradientUnits="userSpaceOnUse"><stop stop-color="#FFF9C6"/><stop offset="1" stop-color="#FFD8AB"/></linearGradient><linearGradient id="paint8_linear" x1="42.053" y1="18" x2="-1.371" y2="19.342" gradientUnits="userSpaceOnUse"><stop stop-color="#FFF9C6"/><stop offset="1" stop-color="#FFD8AB"/></linearGradient><linearGradient id="paint9_linear" x1="42.053" y1="18" x2="-1.371" y2="19.342" gradientUnits="userSpaceOnUse"><stop stop-color="#FFF9C6"/><stop offset="1" stop-color="#FFD8AB"/></linearGradient><linearGradient id="paint10_linear" x1="42.053" y1="18" x2="-1.371" y2="19.342" gradientUnits="userSpaceOnUse"><stop stop-color="#FFF9C6"/><stop offset="1" stop-color="#FFD8AB"/></linearGradient><linearGradient id="paint11_linear" x1="42.053" y1="18" x2="-1.371" y2="19.342" gradientUnits="userSpaceOnUse"><stop stop-color="#FFF9C6"/><stop offset="1" stop-color="#FFD8AB"/></linearGradient><linearGradient id="paint12_linear" x1="42.053" y1="18" x2="-1.371" y2="19.342" gradientUnits="userSpaceOnUse"><stop stop-color="#FFF9C6"/><stop offset="1" stop-color="#FFD8AB"/></linearGradient><linearGradient id="paint13_linear" x1="42.053" y1="18" x2="-1.371" y2="19.342" gradientUnits="userSpaceOnUse"><stop stop-color="#FFF9C6"/><stop offset="1" stop-color="#FFD8AB"/></linearGradient><linearGradient id="paint14_linear" x1="42.053" y1="18" x2="-1.371" y2="19.342" gradientUnits="userSpaceOnUse"><stop stop-color="#FFF9C6"/><stop offset="1" stop-color="#FFD8AB"/></linearGradient><linearGradient id="paint15_linear" x1="42.053" y1="18" x2="-1.371" y2="19.342" gradientUnits="userSpaceOnUse"><stop stop-color="#FFF9C6"/><stop offset="1" stop-color="#FFD8AB"/></linearGradient><linearGradient id="paint16_linear" x1="42.053" y1="18" x2="-1.371" y2="19.342" gradientUnits="userSpaceOnUse"><stop stop-color="#FFF9C6"/><stop offset="1" stop-color="#FFD8AB"/></linearGradient><linearGradient id="paint17_linear" x1="42.053" y1="18" x2="-1.371" y2="19.342" gradientUnits="userSpaceOnUse"><stop stop-color="#FFF9C6"/><stop offset="1" stop-color="#FFD8AB"/></linearGradient><linearGradient id="paint18_linear" x1="42.053" y1="18" x2="-1.371" y2="19.342" gradientUnits="userSpaceOnUse"><stop stop-color="#FFF9C6"/><stop offset="1" stop-color="#FFD8AB"/></linearGradient><linearGradient id="paint19_linear" x1="42.053" y1="18" x2="-1.371" y2="19.342" gradientUnits="userSpaceOnUse"><stop stop-color="#FFF9C6"/><stop offset="1" stop-color="#FFD8AB"/></linearGradient><linearGradient id="paint20_linear" x1="42.053" y1="18" x2="-1.371" y2="19.342" gradientUnits="userSpaceOnUse"><stop stop-color="#FFF9C6"/><stop offset="1" stop-color="#FFD8AB"/></linearGradient><linearGradient id="paint21_linear" x1="42.053" y1="18" x2="-1.371" y2="19.342" gradientUnits="userSpaceOnUse"><stop stop-color="#FFF9C6"/><stop offset="1" stop-color="#FFD8AB"/></linearGradient><linearGradient id="paint22_linear" x1="42.053" y1="18" x2="-1.371" y2="19.342" gradientUnits="userSpaceOnUse"><stop stop-color="#FFF9C6"/><stop offset="1" stop-color="#FFD8AB"/></linearGradient><linearGradient id="paint23_linear" x1="42.053" y1="18" x2="-1.371" y2="19.342" gradientUnits="userSpaceOnUse"><stop stop-color="#FFF9C6"/><stop offset="1" stop-color="#FFD8AB"/></linearGradient><linearGradient id="paint24_linear" x1="42.053" y1="18" x2="-1.371" y2="19.342" gradientUnits="userSpaceOnUse"><stop stop-color="#FFF9C6"/><stop offset="1" stop-color="#FFD8AB"/></linearGradient><linearGradient id="paint25_linear" x1="42.053" y1="18" x2="-1.371" y2="19.342" gradientUnits="userSpaceOnUse"><stop stop-color="#FFF9C6"/><stop offset="1" stop-color="#FFD8AB"/></linearGradient><linearGradient id="paint26_linear" x1="42.053" y1="18" x2="-1.371" y2="19.342" gradientUnits="userSpaceOnUse"><stop stop-color="#FFF9C6"/><stop offset="1" stop-color="#FFD8AB"/></linearGradient><linearGradient id="paint27_linear" x1="42.053" y1="18" x2="-1.371" y2="19.342" gradientUnits="userSpaceOnUse"><stop stop-color="#FFF9C6"/><stop offset="1" stop-color="#FFD8AB"/></linearGradient><linearGradient id="paint28_linear" x1="42.053" y1="18" x2="-1.371" y2="19.342" gradientUnits="userSpaceOnUse"><stop stop-color="#FFF9C6"/><stop offset="1" stop-color="#FFD8AB"/></linearGradient><linearGradient id="paint29_linear" x1="42.053" y1="18" x2="-1.371" y2="19.342" gradientUnits="userSpaceOnUse"><stop stop-color="#FFF9C6"/><stop offset="1" stop-color="#FFD8AB"/></linearGradient><linearGradient id="paint30_linear" x1="42.053" y1="18" x2="-1.371" y2="19.342" gradientUnits="userSpaceOnUse"><stop stop-color="#FFF9C6"/><stop offset="1" stop-color="#FFD8AB"/></linearGradient><linearGradient id="paint31_linear" x1="42.053" y1="18" x2="-1.371" y2="19.342" gradientUnits="userSpaceOnUse"><stop stop-color="#FFF9C6"/><stop offset="1" stop-color="#FFD8AB"/></linearGradient><linearGradient id="paint32_linear" x1="42.053" y1="18" x2="-1.371" y2="19.342" gradientUnits="userSpaceOnUse"><stop stop-color="#FFF9C6"/><stop offset="1" stop-color="#FFD8AB"/></linearGradient><linearGradient id="paint33_linear" x1="42.053" y1="18" x2="-1.371" y2="19.342" gradientUnits="userSpaceOnUse"><stop stop-color="#FFF9C6"/><stop offset="1" stop-color="#FFD8AB"/></linearGradient><linearGradient id="paint34_linear" x1="42.053" y1="18" x2="-1.371" y2="19.342" gradientUnits="userSpaceOnUse"><stop stop-color="#FFF9C6"/><stop offset="1" stop-color="#FFD8AB"/></linearGradient><linearGradient id="paint35_linear" x1="42.053" y1="18" x2="-1.371" y2="19.342" gradientUnits="userSpaceOnUse"><stop stop-color="#FFF9C6"/><stop offset="1" stop-color="#FFD8AB"/></linearGradient><linearGradient id="paint36_linear" x1="42.053" y1="18" x2="-1.371" y2="19.342" gradientUnits="userSpaceOnUse"><stop stop-color="#FFF9C6"/><stop offset="1" stop-color="#FFD8AB"/></linearGradient><linearGradient id="paint37_linear" x1="42.053" y1="18" x2="-1.371" y2="19.342" gradientUnits="userSpaceOnUse"><stop stop-color="#FFF9C6"/><stop offset="1" stop-color="#FFD8AB"/></linearGradient><linearGradient id="paint38_linear" x1="42.053" y1="18" x2="-1.371" y2="19.342" gradientUnits="userSpaceOnUse"><stop stop-color="#FFF9C6"/><stop offset="1" stop-color="#FFD8AB"/></linearGradient><linearGradient id="paint39_linear" x1="42.053" y1="18" x2="-1.371" y2="19.342" gradientUnits="userSpaceOnUse"><stop stop-color="#FFF9C6"/><stop offset="1" stop-color="#FFD8AB"/></linearGradient><linearGradient id="paint40_linear" x1="42.053" y1="18" x2="-1.371" y2="19.342" gradientUnits="userSpaceOnUse"><stop stop-color="#FFF9C6"/><stop offset="1" stop-color="#FFD8AB"/></linearGradient><linearGradient id="paint41_linear" x1="42.053" y1="18" x2="-1.371" y2="19.342" gradientUnits="userSpaceOnUse"><stop stop-color="#FFF9C6"/><stop offset="1" stop-color="#FFD8AB"/></linearGradient><linearGradient id="paint42_linear" x1="42.053" y1="18" x2="-1.371" y2="19.342" gradientUnits="userSpaceOnUse"><stop stop-color="#FFF9C6"/><stop offset="1" stop-color="#FFD8AB"/></linearGradient><linearGradient id="paint43_linear" x1="42.053" y1="18" x2="-1.371" y2="19.342" gradientUnits="userSpaceOnUse"><stop stop-color="#FFF9C6"/><stop offset="1" stop-color="#FFD8AB"/></linearGradient><linearGradient id="paint44_linear" x1="42.053" y1="18" x2="-1.371" y2="19.342" gradientUnits="userSpaceOnUse"><stop stop-color="#FFF9C6"/><stop offset="1" stop-color="#FFD8AB"/></linearGradient><linearGradient id="paint45_linear" x1="42.053" y1="18" x2="-1.371" y2="19.342" gradientUnits="userSpaceOnUse"><stop stop-color="#FFF9C6"/><stop offset="1" stop-color="#FFD8AB"/></linearGradient><linearGradient id="paint46_linear" x1="42.053" y1="18" x2="-1.371" y2="19.342" gradientUnits="userSpaceOnUse"><stop stop-color="#FFF9C6"/><stop offset="1" stop-color="#FFD8AB"/></linearGradient></defs></svg>