<svg width="110" height="106" fill="none" xmlns="http://www.w3.org/2000/svg"><path opacity=".3" d="M32.986 1L1 104.76h82.963l24.989-51.88L83.963 1H32.986z" stroke="url(#paint0_linear)" stroke-width=".5"/><path d="M58.636 53.577c.405-1.755.623-3.545.623-5.336 0-8.31-4.232-15.879-11.321-20.243a.913.913 0 10-.959 1.556c6.545 4.03 10.452 11.015 10.452 18.687 0 1.578-.183 3.154-.524 4.704a6.404 6.404 0 00-7.7 6.262 6.404 6.404 0 006.396 6.396A6.404 6.404 0 0062 59.207a6.402 6.402 0 00-3.364-5.63zm-3.033 10.199a4.574 4.574 0 01-4.569-4.57 4.575 4.575 0 014.57-4.568 4.574 4.574 0 014.568 4.569c0 2.52-2.05 4.569-4.569 4.569z" fill="url(#paint1_linear)"/><path d="M43.88 68.511a21.808 21.808 0 01-8.38 1.661 21.974 21.974 0 01-15.55-6.48 6.372 6.372 0 001.843-4.485 6.404 6.404 0 00-6.396-6.397A6.404 6.404 0 009 59.207a6.404 6.404 0 006.397 6.396c1.12 0 2.173-.291 3.09-.8A23.8 23.8 0 0035.5 72c3.139 0 6.194-.606 9.08-1.801a.915.915 0 00-.7-1.688zm-33.052-9.304c0-2.52 2.05-4.57 4.569-4.57s4.568 2.05 4.568 4.57c0 2.52-2.05 4.569-4.568 4.569a4.574 4.574 0 01-4.57-4.57z" fill="url(#paint2_linear)"/><path d="M12.655 47.522a.914.914 0 00.976-.847A21.819 21.819 0 0129.367 27.2c.78 2.651 3.232 4.594 6.133 4.594a6.404 6.404 0 006.397-6.396A6.404 6.404 0 0035.5 19a6.404 6.404 0 00-6.396 6.374c-9.668 2.693-16.585 11.098-17.296 21.173a.913.913 0 00.847.975zM35.5 20.828c2.52 0 4.569 2.05 4.569 4.569s-2.05 4.569-4.569 4.569a4.574 4.574 0 01-4.569-4.57 4.574 4.574 0 014.569-4.568z" fill="url(#paint3_linear)"/><defs><linearGradient id="paint0_linear" x1="91.793" y1="1" x2="-1.932" y2="4.316" gradientUnits="userSpaceOnUse"><stop stop-color="#FFF9C6"/><stop offset="1" stop-color="#FFD8AB"/></linearGradient><linearGradient id="paint1_linear" x1="53.576" y1="19" x2="7.556" y2="20.565" gradientUnits="userSpaceOnUse"><stop stop-color="#FFF9C6"/><stop offset="1" stop-color="#FFD8AB"/></linearGradient><linearGradient id="paint2_linear" x1="53.576" y1="19" x2="7.556" y2="20.565" gradientUnits="userSpaceOnUse"><stop stop-color="#FFF9C6"/><stop offset="1" stop-color="#FFD8AB"/></linearGradient><linearGradient id="paint3_linear" x1="53.576" y1="19" x2="7.556" y2="20.565" gradientUnits="userSpaceOnUse"><stop stop-color="#FFF9C6"/><stop offset="1" stop-color="#FFD8AB"/></linearGradient></defs></svg>