<svg width="110" height="106" fill="none" xmlns="http://www.w3.org/2000/svg"><path opacity=".3" d="M32.986 1L1 104.76h82.963l24.989-51.88L83.963 1H32.986z" stroke="url(#paint0_linear)" stroke-width=".5"/><path d="M61.255 43.455l-3.782-3.215a.792.792 0 00-1.115.09.79.79 0 00.09 1.113l3.227 2.744H47.1l5-6.438 1.769 1.503a.792.792 0 001.115-.09.79.79 0 00-.09-1.114l-2.398-2.038a2.121 2.121 0 00-1.372-.505h-.62a2.12 2.12 0 00.076-.555v-1.455c0-.785-.428-1.47-1.061-1.841l3.56-8.193a1.328 1.328 0 00-1.221-1.858h-2.324c-.226 0-.45.059-.648.17l-2.294 1.278a.79.79 0 10.77 1.38l2.238-1.247h1.874l-3.552 8.176H23.078l-3.553-8.176H21.4l7.326 4.084a.91.91 0 001.116-.188l5.658-6.368 5.66 6.368a.909.909 0 001.114.188l2.11-1.176a.79.79 0 10-.772-1.38l-1.633.91-5.49-6.178a1.324 1.324 0 00-1.978 0l-5.49 6.178-6.907-3.85a1.336 1.336 0 00-.648-.168h-2.324a1.328 1.328 0 00-1.22 1.858l3.559 8.192a2.134 2.134 0 00-1.06 1.841v1.455c0 .192.027.378.075.555h-.62c-.502 0-.99.18-1.372.505l-8.76 7.445a2.12 2.12 0 00-.742 1.515 2.12 2.12 0 00.604 1.575l24.383 24.821a2.1 2.1 0 001.51.634c.574 0 1.11-.225 1.512-.634l24.383-24.82c.41-.418.63-.992.604-1.576a2.12 2.12 0 00-.743-1.515zm-22.671-6.37l5.32 7.102H27.096l5.321-7.102h6.168zm1.976 0h10.053l-5.117 6.589-4.936-6.589zm-15.056 6.589l-5.117-6.588H30.44l-4.936 6.588zm-1.604.513H11.325l7.574-6.438 5.001 6.438zm1.07 1.58l1.856 4.834a.791.791 0 001.477-.565l-1.637-4.269h17.668L35.5 68.791l-5.987-15.604a.791.791 0 00-1.478.566l5.853 15.255-22.83-23.24h13.913zm21.059 0h13.912l-22.83 23.24 8.918-23.24zM22.003 34.95v-1.455c0-.306.25-.555.556-.555h25.882c.307 0 .556.249.556.555v1.455c0 .306-.25.555-.556.555H22.56a.556.556 0 01-.556-.555z" fill="url(#paint1_linear)"/><path d="M34.975 25.203a2.16 2.16 0 00-2.16 2.156v.313a2.16 2.16 0 002.16 2.156h1.05a2.16 2.16 0 002.16-2.156v-.313a2.16 2.16 0 00-2.16-2.156h-1.05zm1.627 2.156v.313a.577.577 0 01-.577.576h-1.05a.577.577 0 01-.577-.576v-.313c0-.318.259-.576.577-.576h1.05c.318 0 .577.258.577.576z" fill="url(#paint2_linear)"/><path d="M41.236 28.549h-.394a.79.79 0 100 1.58h.394a.79.79 0 100-1.58z" fill="url(#paint3_linear)"/><path d="M45.717 30.13h.394a.79.79 0 100-1.581h-.394a.79.79 0 100 1.58z" fill="url(#paint4_linear)"/><path d="M29.764 28.549a.79.79 0 100 1.58h.394a.79.79 0 100-1.58h-.394z" fill="url(#paint5_linear)"/><path d="M24.889 28.549a.79.79 0 100 1.58h.393a.79.79 0 100-1.58h-.393z" fill="url(#paint6_linear)"/><defs><linearGradient id="paint0_linear" x1="91.793" y1="1" x2="-1.932" y2="4.316" gradientUnits="userSpaceOnUse"><stop stop-color="#FFF9C6"/><stop offset="1" stop-color="#FFD8AB"/></linearGradient><linearGradient id="paint1_linear" x1="53.576" y1="19" x2="7.556" y2="20.565" gradientUnits="userSpaceOnUse"><stop stop-color="#FFF9C6"/><stop offset="1" stop-color="#FFD8AB"/></linearGradient><linearGradient id="paint2_linear" x1="53.576" y1="19" x2="7.556" y2="20.565" gradientUnits="userSpaceOnUse"><stop stop-color="#FFF9C6"/><stop offset="1" stop-color="#FFD8AB"/></linearGradient><linearGradient id="paint3_linear" x1="53.576" y1="19" x2="7.556" y2="20.565" gradientUnits="userSpaceOnUse"><stop stop-color="#FFF9C6"/><stop offset="1" stop-color="#FFD8AB"/></linearGradient><linearGradient id="paint4_linear" x1="53.576" y1="19" x2="7.556" y2="20.565" gradientUnits="userSpaceOnUse"><stop stop-color="#FFF9C6"/><stop offset="1" stop-color="#FFD8AB"/></linearGradient><linearGradient id="paint5_linear" x1="53.576" y1="19" x2="7.556" y2="20.565" gradientUnits="userSpaceOnUse"><stop stop-color="#FFF9C6"/><stop offset="1" stop-color="#FFD8AB"/></linearGradient><linearGradient id="paint6_linear" x1="53.576" y1="19" x2="7.556" y2="20.565" gradientUnits="userSpaceOnUse"><stop stop-color="#FFF9C6"/><stop offset="1" stop-color="#FFD8AB"/></linearGradient></defs></svg>