<svg width="110" height="106" fill="none" xmlns="http://www.w3.org/2000/svg"><path opacity=".3" d="M32.986 1L1 104.76h82.963l24.989-51.88L83.963 1H32.986z" stroke="url(#paint0_linear)" stroke-width=".5"/><path d="M41.318 62.374h-.145c-3.303-.115-7.787-.806-10.384-3.45a.823.823 0 01.01-1.143.793.793 0 011.121-.01c2.346 2.39 6.838 2.89 9.308 2.975a2.63 2.63 0 001.793-.602 2.72 2.72 0 00.95-1.66c.267-1.51-.738-2.83-2.502-3.287l-4.335-1.122a12.873 12.873 0 01-3.53-1.524 70.664 70.664 0 00-3.468-1.98c-5.166-2.786-10.243-2.075-14.68 2.056a.795.795 0 01-.878.137.801.801 0 01-.413-.46.83.83 0 01.212-.879c4.98-4.638 10.689-5.431 16.508-2.293a71.837 71.837 0 013.547 2.025 11.3 11.3 0 003.096 1.338l4.335 1.123c2.587.67 4.101 2.788 3.679 5.154a4.415 4.415 0 01-1.475 2.576 4.273 4.273 0 01-2.749 1.026z" fill="url(#paint1_linear)"/><path d="M36.547 71.536a11.48 11.48 0 01-6.255-1.865l-5.505-3.567a2.492 2.492 0 00-2.293-.214l-7.279 2.994a.787.787 0 01-.604-.015.808.808 0 01-.422-.441.828.828 0 01.003-.616.807.807 0 01.424-.438l7.279-2.994a4.056 4.056 0 013.751.35l5.505 3.567a9.865 9.865 0 005.668 1.606 9.881 9.881 0 005.573-1.918l17.863-13.023c.32-.234.587-.536.78-.886a2.804 2.804 0 00.186-2.319 2.776 2.776 0 00-.63-1.003 2.642 2.642 0 00-3.302-.433l-11.934 8.001a.788.788 0 01-1.108-.233.827.827 0 01.228-1.128l11.937-8c.954-.6 2.1-.797 3.195-.553a4.318 4.318 0 012.673 1.865c.62.951.852 2.11.648 3.233a4.407 4.407 0 01-1.743 2.782l-17.861 13.02a11.484 11.484 0 01-6.777 2.228z" fill="url(#paint2_linear)"/><path d="M41.666 55.22a.79.79 0 01-.478-.16.828.828 0 01.039-1.334l7.909-5.273a5.92 5.92 0 014.065-.963 5.97 5.97 0 013.7 1.968.823.823 0 01-.061 1.142.792.792 0 01-1.122-.046 4.389 4.389 0 00-2.719-1.445 4.351 4.351 0 00-2.986.707l-7.91 5.272a.784.784 0 01-.437.133z" fill="url(#paint3_linear)"/><path d="M36.714 53.916a.79.79 0 01-.474-.159.828.828 0 01.021-1.327l6.943-4.86a5.541 5.541 0 017.264.823.815.815 0 01.22.587.828.828 0 01-.256.572.797.797 0 01-.58.216.789.789 0 01-.558-.269 3.953 3.953 0 00-5.184-.587l-6.944 4.861a.79.79 0 01-.452.143z" fill="url(#paint4_linear)"/><path d="M10.898 72H7.8a.793.793 0 01-.566-.239.822.822 0 01-.234-.575V48.638c0-.216.084-.423.234-.576a.793.793 0 01.566-.238h3.098a4.78 4.78 0 013.407 1.438 4.958 4.958 0 011.414 3.469v14.362a4.958 4.958 0 01-1.414 3.469A4.78 4.78 0 0110.898 72zM8.6 70.371h2.298c.854 0 1.672-.346 2.276-.96a3.312 3.312 0 00.945-2.318V52.73a3.312 3.312 0 00-.944-2.317 3.194 3.194 0 00-2.276-.96H8.6V70.37z" fill="url(#paint5_linear)"/><path d="M29.753 44.817a.792.792 0 01-.527-.202c-.463-.413-11.341-10.194-11.818-17.339a7.873 7.873 0 01.422-3.15 7.769 7.769 0 011.631-2.714 7.341 7.341 0 012.413-1.765A7.225 7.225 0 0124.776 19c.93.007 1.848.202 2.702.574a7.001 7.001 0 012.275 1.592 7 7 0 012.274-1.592A6.895 6.895 0 0134.73 19c1 .012 1.988.232 2.902.647a7.341 7.341 0 012.413 1.765 7.769 7.769 0 011.63 2.713 7.873 7.873 0 01.423 3.151c-.48 7.145-11.358 16.926-11.818 17.339a.792.792 0 01-.527.202zm-4.977-24.19a5.643 5.643 0 00-2.265.511 5.734 5.734 0 00-1.881 1.384 6.15 6.15 0 00-1.292 2.147c-.28.8-.394 1.649-.335 2.495.377 5.645 8.571 13.691 10.75 15.736 2.178-2.046 10.372-10.099 10.75-15.737a6.234 6.234 0 00-.336-2.495 6.16 6.16 0 00-1.291-2.147 5.736 5.736 0 00-1.88-1.385 5.645 5.645 0 00-2.267-.511 5.44 5.44 0 00-2.432.619 5.546 5.546 0 00-1.912 1.65.83.83 0 01-.632.298.815.815 0 01-.632-.298 5.546 5.546 0 00-1.913-1.65 5.44 5.44 0 00-2.432-.618v.001z" fill="url(#paint6_linear)"/><path d="M38.508 47.096a.791.791 0 01-.527-.202 56.99 56.99 0 01-5.44-5.718.818.818 0 01-.192-.598.825.825 0 01.283-.56.798.798 0 01.591-.187.79.79 0 01.545.3 57.091 57.091 0 004.743 5.049c1.992-1.877 8.959-8.773 9.279-13.597a5.341 5.341 0 00-.288-2.137 5.27 5.27 0 00-1.107-1.84 4.798 4.798 0 00-2.277-1.423 4.727 4.727 0 00-2.672.034.787.787 0 01-.859-.24.82.82 0 01-.194-.591.83.83 0 01.274-.559.798.798 0 01.272-.158 6.323 6.323 0 013.57-.063 6.414 6.414 0 013.053 1.885 6.89 6.89 0 011.447 2.405c.314.895.442 1.846.376 2.794-.418 6.271-9.946 14.838-10.35 15.2a.792.792 0 01-.527.206z" fill="url(#paint7_linear)"/><defs><linearGradient id="paint0_linear" x1="91.793" y1="1" x2="-1.932" y2="4.316" gradientUnits="userSpaceOnUse"><stop stop-color="#FFF9C6"/><stop offset="1" stop-color="#FFD8AB"/></linearGradient><linearGradient id="paint1_linear" x1="54.099" y1="19" x2="5.481" y2="20.747" gradientUnits="userSpaceOnUse"><stop stop-color="#FFF9C6"/><stop offset="1" stop-color="#FFD8AB"/></linearGradient><linearGradient id="paint2_linear" x1="54.099" y1="19" x2="5.481" y2="20.747" gradientUnits="userSpaceOnUse"><stop stop-color="#FFF9C6"/><stop offset="1" stop-color="#FFD8AB"/></linearGradient><linearGradient id="paint3_linear" x1="54.099" y1="19" x2="5.481" y2="20.747" gradientUnits="userSpaceOnUse"><stop stop-color="#FFF9C6"/><stop offset="1" stop-color="#FFD8AB"/></linearGradient><linearGradient id="paint4_linear" x1="54.099" y1="19" x2="5.481" y2="20.747" gradientUnits="userSpaceOnUse"><stop stop-color="#FFF9C6"/><stop offset="1" stop-color="#FFD8AB"/></linearGradient><linearGradient id="paint5_linear" x1="54.099" y1="19" x2="5.481" y2="20.747" gradientUnits="userSpaceOnUse"><stop stop-color="#FFF9C6"/><stop offset="1" stop-color="#FFD8AB"/></linearGradient><linearGradient id="paint6_linear" x1="54.099" y1="19" x2="5.481" y2="20.747" gradientUnits="userSpaceOnUse"><stop stop-color="#FFF9C6"/><stop offset="1" stop-color="#FFD8AB"/></linearGradient><linearGradient id="paint7_linear" x1="54.099" y1="19" x2="5.481" y2="20.747" gradientUnits="userSpaceOnUse"><stop stop-color="#FFF9C6"/><stop offset="1" stop-color="#FFD8AB"/></linearGradient></defs></svg>