<svg width="32" height="32" fill="none" xmlns="http://www.w3.org/2000/svg"><path d="M26.605 1H5.395A4.4 4.4 0 001 5.395v21.21A4.4 4.4 0 005.395 31h21.21A4.4 4.4 0 0031 26.605V5.395A4.4 4.4 0 0026.605 1zm2.637 25.605a2.64 2.64 0 01-2.637 2.637H5.395a2.64 2.64 0 01-2.637-2.637V5.395a2.64 2.64 0 012.637-2.637h21.21a2.64 2.64 0 012.637 2.637v21.21z" fill="url(#paint0_linear)"/><path d="M25.668 4.574a1.76 1.76 0 00-1.758 1.758c0 .97.789 1.758 1.758 1.758a1.76 1.76 0 001.758-1.758 1.76 1.76 0 00-1.758-1.758z" fill="url(#paint1_linear)"/><path d="M16 8.09c-4.362 0-7.91 3.548-7.91 7.91s3.548 7.91 7.91 7.91 7.91-3.548 7.91-7.91S20.362 8.09 16 8.09zm0 14.062A6.159 6.159 0 019.848 16 6.16 6.16 0 0116 9.848 6.159 6.159 0 0122.152 16 6.159 6.159 0 0116 22.152z" fill="url(#paint2_linear)"/><path d="M26.605 1H5.395A4.4 4.4 0 001 5.395v21.21A4.4 4.4 0 005.395 31h21.21A4.4 4.4 0 0031 26.605V5.395A4.4 4.4 0 0026.605 1zm2.637 25.605a2.64 2.64 0 01-2.637 2.637H5.395a2.64 2.64 0 01-2.637-2.637V5.395a2.64 2.64 0 012.637-2.637h21.21a2.64 2.64 0 012.637 2.637v21.21z" stroke="#0C0C0C" stroke-width=".7"/><path d="M25.668 4.574a1.76 1.76 0 00-1.758 1.758c0 .97.789 1.758 1.758 1.758a1.76 1.76 0 001.758-1.758 1.76 1.76 0 00-1.758-1.758zM16 8.09c-4.362 0-7.91 3.548-7.91 7.91s3.548 7.91 7.91 7.91 7.91-3.548 7.91-7.91S20.362 8.09 16 8.09zm0 14.062A6.159 6.159 0 019.848 16 6.16 6.16 0 0116 9.848 6.159 6.159 0 0122.152 16 6.159 6.159 0 0116 22.152z" stroke="#0C0C0C" stroke-width=".7"/><defs><linearGradient id="paint0_linear" x1="26.232" y1="1" x2=".183" y2="1.886" gradientUnits="userSpaceOnUse"><stop stop-color="#FFF9C6"/><stop offset="1" stop-color="#FFD8AB"/></linearGradient><linearGradient id="paint1_linear" x1="26.232" y1="1" x2=".183" y2="1.886" gradientUnits="userSpaceOnUse"><stop stop-color="#FFF9C6"/><stop offset="1" stop-color="#FFD8AB"/></linearGradient><linearGradient id="paint2_linear" x1="26.232" y1="1" x2=".183" y2="1.886" gradientUnits="userSpaceOnUse"><stop stop-color="#FFF9C6"/><stop offset="1" stop-color="#FFD8AB"/></linearGradient></defs></svg>