<svg width="15" height="20" fill="none" xmlns="http://www.w3.org/2000/svg"><path d="M7.5 3.033c-2.439 0-4.423 1.956-4.423 4.36 0 2.403 1.984 4.359 4.423 4.359s4.423-1.956 4.423-4.36c0-2.403-1.984-4.359-4.423-4.359zm0 7.546c-1.783 0-3.233-1.43-3.233-3.187S5.717 4.206 7.5 4.206c1.783 0 3.233 1.43 3.233 3.186 0 1.757-1.45 3.187-3.233 3.187z" fill="url(#paint0_linear)"/><path d="M7.5 0C3.364 0 0 3.316 0 7.392c0 2.35 2 5.853 3.192 7.731.785 1.236 1.628 2.412 2.374 3.312C6.764 19.88 7.192 20 7.5 20c.312 0 .717-.12 1.911-1.566.748-.905 1.591-2.08 2.375-3.31C12.986 13.241 15 9.733 15 7.392 15 3.316 11.636 0 7.5 0zm3.461 14.211c-1.538 2.461-2.95 4.124-3.468 4.549-.52-.412-1.91-2.035-3.47-4.54-1.8-2.894-2.833-5.383-2.833-6.828 0-3.43 2.83-6.22 6.31-6.22 3.48 0 6.31 2.79 6.31 6.22 0 1.437-1.038 3.923-2.849 6.82z" fill="url(#paint1_linear)"/><defs><linearGradient id="paint0_linear" x1="12.616" y1="0" x2="-.415" y2=".332" gradientUnits="userSpaceOnUse"><stop stop-color="#FFF9C6"/><stop offset="1" stop-color="#FFD8AB"/></linearGradient><linearGradient id="paint1_linear" x1="12.616" y1="0" x2="-.415" y2=".332" gradientUnits="userSpaceOnUse"><stop stop-color="#FFF9C6"/><stop offset="1" stop-color="#FFD8AB"/></linearGradient></defs></svg>