<svg width="21" height="38" fill="none" xmlns="http://www.w3.org/2000/svg"><path d="M16.332 1.159H4.582c2.625 0 .625 1.442 2.833 1.442H13.5c2.207 0 .707-1.442 2.832-1.442z" fill="url(#paint0_linear)"/><path d="M19.042 0H1.958C.878 0 0 .957 0 2.133v33.734C0 37.043.878 38 1.958 38h17.084c1.08 0 1.958-.957 1.958-2.133V2.133C21 .957 20.122 0 19.042 0zm.89 35.867c0 .535-.399.97-.89.97H1.958c-.491 0-.89-.435-.89-.97v-2.326h18.864v2.326zm0-2.326H1.068V5.622h18.864v27.919zm0-27.919H1.068v-3.49c0-.534.399-.969.89-.969h17.084c.491 0 .89.435.89.97v3.49z" fill="url(#paint1_linear)"/><path d="M14.86 35.15H6.792c-.491 0-.89-.014-.89.522 0 .535.399.486.89.486h8.068c.492 0 .89.05.89-.486 0-.535-.398-.522-.89-.522z" fill="url(#paint2_linear)"/><defs><linearGradient id="paint0_linear" x1="17.662" y1="0" x2="-.587" y2=".343" gradientUnits="userSpaceOnUse"><stop stop-color="#FFF9C6"/><stop offset="1" stop-color="#FFD8AB"/></linearGradient><linearGradient id="paint1_linear" x1="17.662" y1="0" x2="-.587" y2=".343" gradientUnits="userSpaceOnUse"><stop stop-color="#FFF9C6"/><stop offset="1" stop-color="#FFD8AB"/></linearGradient><linearGradient id="paint2_linear" x1="17.662" y1="0" x2="-.587" y2=".343" gradientUnits="userSpaceOnUse"><stop stop-color="#FFF9C6"/><stop offset="1" stop-color="#FFD8AB"/></linearGradient></defs></svg>