<svg width="110" height="106" fill="none" xmlns="http://www.w3.org/2000/svg"><path opacity=".3" d="M33.034 1L1.048 104.76h82.963L109 52.88 84.011 1H33.034z" stroke="url(#paint0_linear)" stroke-width=".5"/><path d="M46.667 39.333a.833.833 0 00-.834-.833H31.667V25.167a.833.833 0 00-.834-.834c-.837.005-1.674.077-2.5.217v-2.717A.834.834 0 0027.5 21h-20a.86.86 0 00-.592.242L.242 27.908A.861.861 0 000 28.5v41.667A.833.833 0 00.833 71H27.5a.833.833 0 00.833-.833V55.783c.826.14 1.663.212 2.5.217a15.847 15.847 0 0015.834-15.833c0-.225-.009-.45-.017-.675a.925.925 0 00.017-.159zM30 26.025v12.967L19.867 49.125A14.159 14.159 0 0130 26.025zM6.667 23.842v3.825H2.842l3.825-3.825zm20 45.491h-25v-40H7.5a.834.834 0 00.833-.833v-5.833h18.334v2.241a15.811 15.811 0 000 30.517v13.908zm4.166-15c-3.672 0-7.2-1.431-9.833-3.991l10.175-10.175H45a14.187 14.187 0 01-14.167 14.166z" fill="url(#paint1_linear)"/><path d="M34.167 36.833h15v-.005a.828.828 0 00.807-.873A15.82 15.82 0 0034.167 21a.833.833 0 00-.834.833V36a.833.833 0 00.834.833zm14.068-1.666H35V22.69a14.154 14.154 0 0113.235 12.476z" fill="url(#paint2_linear)"/><path d="M14.167 52.667a7.5 7.5 0 107.5 7.5 7.512 7.512 0 00-7.5-7.5zm0 13.333A5.833 5.833 0 1120 60.167 5.84 5.84 0 0114.167 66z" fill="url(#paint3_linear)"/><path d="M16.667 61.833A2.509 2.509 0 0115 64.183v.984h-1.667v-.984a2.508 2.508 0 01-1.666-2.35h1.666a.833.833 0 10.834-.833 2.5 2.5 0 01-.834-4.85v-.983H15v.983a2.509 2.509 0 011.667 2.35H15a.834.834 0 10-.833.833 2.507 2.507 0 012.5 2.5z" fill="url(#paint4_linear)"/><path d="M5 32.667h8.333v1.666H5v-1.666z" fill="url(#paint5_linear)"/><path d="M5 37.667h8.333v1.666H5v-1.666z" fill="url(#paint6_linear)"/><path d="M5 42.667h8.333v1.666H5v-1.666z" fill="url(#paint7_linear)"/><path d="M5 47.667h8.333v1.666H5v-1.666z" fill="url(#paint8_linear)"/><path d="M31.667 59.333H35V61h-3.333v-1.667z" fill="url(#paint9_linear)"/><path d="M36.667 59.333H50V61H36.667v-1.667z" fill="url(#paint10_linear)"/><path d="M31.667 64.333H35V66h-3.333v-1.667z" fill="url(#paint11_linear)"/><path d="M36.667 64.333H50V66H36.667v-1.667z" fill="url(#paint12_linear)"/><path d="M31.667 69.333H35V71h-3.333v-1.667z" fill="url(#paint13_linear)"/><path d="M36.667 69.333H50V71H36.667v-1.667z" fill="url(#paint14_linear)"/><defs><linearGradient id="paint0_linear" x1="91.841" y1="1" x2="-1.884" y2="4.316" gradientUnits="userSpaceOnUse"><stop stop-color="#FFF9C6"/><stop offset="1" stop-color="#FFD8AB"/></linearGradient><linearGradient id="paint1_linear" x1="42.053" y1="21" x2="-1.362" y2="22.476" gradientUnits="userSpaceOnUse"><stop stop-color="#FFF9C6"/><stop offset="1" stop-color="#FFD8AB"/></linearGradient><linearGradient id="paint2_linear" x1="42.053" y1="21" x2="-1.362" y2="22.476" gradientUnits="userSpaceOnUse"><stop stop-color="#FFF9C6"/><stop offset="1" stop-color="#FFD8AB"/></linearGradient><linearGradient id="paint3_linear" x1="42.053" y1="21" x2="-1.362" y2="22.476" gradientUnits="userSpaceOnUse"><stop stop-color="#FFF9C6"/><stop offset="1" stop-color="#FFD8AB"/></linearGradient><linearGradient id="paint4_linear" x1="42.053" y1="21" x2="-1.362" y2="22.476" gradientUnits="userSpaceOnUse"><stop stop-color="#FFF9C6"/><stop offset="1" stop-color="#FFD8AB"/></linearGradient><linearGradient id="paint5_linear" x1="42.053" y1="21" x2="-1.362" y2="22.476" gradientUnits="userSpaceOnUse"><stop stop-color="#FFF9C6"/><stop offset="1" stop-color="#FFD8AB"/></linearGradient><linearGradient id="paint6_linear" x1="42.053" y1="21" x2="-1.362" y2="22.476" gradientUnits="userSpaceOnUse"><stop stop-color="#FFF9C6"/><stop offset="1" stop-color="#FFD8AB"/></linearGradient><linearGradient id="paint7_linear" x1="42.053" y1="21" x2="-1.362" y2="22.476" gradientUnits="userSpaceOnUse"><stop stop-color="#FFF9C6"/><stop offset="1" stop-color="#FFD8AB"/></linearGradient><linearGradient id="paint8_linear" x1="42.053" y1="21" x2="-1.362" y2="22.476" gradientUnits="userSpaceOnUse"><stop stop-color="#FFF9C6"/><stop offset="1" stop-color="#FFD8AB"/></linearGradient><linearGradient id="paint9_linear" x1="42.053" y1="21" x2="-1.362" y2="22.476" gradientUnits="userSpaceOnUse"><stop stop-color="#FFF9C6"/><stop offset="1" stop-color="#FFD8AB"/></linearGradient><linearGradient id="paint10_linear" x1="42.053" y1="21" x2="-1.362" y2="22.476" gradientUnits="userSpaceOnUse"><stop stop-color="#FFF9C6"/><stop offset="1" stop-color="#FFD8AB"/></linearGradient><linearGradient id="paint11_linear" x1="42.053" y1="21" x2="-1.362" y2="22.476" gradientUnits="userSpaceOnUse"><stop stop-color="#FFF9C6"/><stop offset="1" stop-color="#FFD8AB"/></linearGradient><linearGradient id="paint12_linear" x1="42.053" y1="21" x2="-1.362" y2="22.476" gradientUnits="userSpaceOnUse"><stop stop-color="#FFF9C6"/><stop offset="1" stop-color="#FFD8AB"/></linearGradient><linearGradient id="paint13_linear" x1="42.053" y1="21" x2="-1.362" y2="22.476" gradientUnits="userSpaceOnUse"><stop stop-color="#FFF9C6"/><stop offset="1" stop-color="#FFD8AB"/></linearGradient><linearGradient id="paint14_linear" x1="42.053" y1="21" x2="-1.362" y2="22.476" gradientUnits="userSpaceOnUse"><stop stop-color="#FFF9C6"/><stop offset="1" stop-color="#FFD8AB"/></linearGradient></defs></svg>