<svg width="109" height="105" fill="none" xmlns="http://www.w3.org/2000/svg"><path opacity=".3" d="M32.704 1L1 104h82.231L108 52.5 83.231 1H32.704z" stroke="url(#paint0_linear)" stroke-width=".5"/><path d="M35.5 39.411a6.089 6.089 0 106.089 6.089 6.096 6.096 0 00-6.089-6.089zm0 10.846a4.757 4.757 0 110-9.513 4.757 4.757 0 010 9.513z" fill="url(#paint1_linear)"/><path d="M34.094 37.767a.666.666 0 00.11-.01c.428-.07.862-.106 1.296-.106a.666.666 0 100-1.332 9.24 9.24 0 00-1.513.125.666.666 0 00.107 1.322z" fill="url(#paint2_linear)"/><path d="M32.298 38.332a.666.666 0 00-.543-1.215 9.194 9.194 0 00-5.436 8.383.666.666 0 001.332 0 7.86 7.86 0 014.647-7.168z" fill="url(#paint3_linear)"/><path d="M55.482 28.094a26.5 26.5 0 10-39.964 34.814 26.5 26.5 0 0039.964-34.814zM35.5 20.332a25.174 25.174 0 0118.706 8.334l-1.167 3.033a22.316 22.316 0 00-35.078 0l-1.167-3.033A25.169 25.169 0 0135.5 20.332zm20.324 19.911l-11.071-2.23a11.901 11.901 0 00-18.506 0l-11.07 2.23a20.782 20.782 0 013.14-6.797 20.991 20.991 0 0134.365 0 20.786 20.786 0 013.142 6.797zm4.844 5.257a25.168 25.168 0 11-44.856-15.678l1.214 3.154a22.09 22.09 0 00-3.384 7.99.664.664 0 00.784.787l10.74-2.164a11.914 11.914 0 000 11.823l-10.74-2.165a.667.667 0 00-.783.788 22.34 22.34 0 0017.718 17.4.668.668 0 00.788-.656v-9.856c2.188.641 4.513.641 6.7 0v9.857a.666.666 0 00.79.655 22.34 22.34 0 0017.718-17.4.666.666 0 00-.783-.787l-10.74 2.164a11.782 11.782 0 001.57-5.912c0-.668-.056-1.336-.167-1.995a.667.667 0 00-1.2-.276.667.667 0 00-.113.498 10.7 10.7 0 01.148 1.773 10.467 10.467 0 01-2.214 6.474 10.568 10.568 0 01-16.715.001 10.573 10.573 0 1116.73-12.93c.407.527.763 1.091 1.065 1.685a.666.666 0 001.187-.602c-.093-.182-.19-.362-.293-.54l10.742 2.164a.666.666 0 00.783-.787 22.09 22.09 0 00-3.383-7.99l1.214-3.154a25.155 25.155 0 015.48 15.679zM26.25 52.989a11.902 11.902 0 004.57 3.457v9.516a21.02 21.02 0 01-15.643-15.205l11.073 2.232zm13.933 12.973v-9.515a11.914 11.914 0 004.57-3.46l11.072-2.23a21.02 21.02 0 01-15.642 15.205z" fill="url(#paint4_linear)"/><defs><linearGradient id="paint0_linear" x1="90.992" y1="1" x2="-1.907" y2="4.282" gradientUnits="userSpaceOnUse"><stop stop-color="#FFF9C6"/><stop offset="1" stop-color="#FFD8AB"/></linearGradient><linearGradient id="paint1_linear" x1="53.576" y1="19" x2="7.556" y2="20.565" gradientUnits="userSpaceOnUse"><stop stop-color="#FFF9C6"/><stop offset="1" stop-color="#FFD8AB"/></linearGradient><linearGradient id="paint2_linear" x1="53.576" y1="19" x2="7.556" y2="20.565" gradientUnits="userSpaceOnUse"><stop stop-color="#FFF9C6"/><stop offset="1" stop-color="#FFD8AB"/></linearGradient><linearGradient id="paint3_linear" x1="53.576" y1="19" x2="7.556" y2="20.565" gradientUnits="userSpaceOnUse"><stop stop-color="#FFF9C6"/><stop offset="1" stop-color="#FFD8AB"/></linearGradient><linearGradient id="paint4_linear" x1="53.576" y1="19" x2="7.556" y2="20.565" gradientUnits="userSpaceOnUse"><stop stop-color="#FFF9C6"/><stop offset="1" stop-color="#FFD8AB"/></linearGradient></defs></svg>