<svg width="15" height="15" fill="none" xmlns="http://www.w3.org/2000/svg"><path fill-rule="evenodd" clip-rule="evenodd" d="M6.685.052c-2.312.314-4.14 1.425-5.4 3.284C.647 4.274.257 5.315.073 6.568a5.912 5.912 0 000 1.862c.262 1.786.995 3.262 2.194 4.418 1.266 1.22 2.773 1.912 4.628 2.123 1.032.117 2.479-.124 3.613-.603 1.543-.65 2.968-2.001 3.705-3.512.467-.959.495-1.396.1-1.584-.11-.052-.156-.055-.284-.017-.214.064-.374.27-.592.759a6.32 6.32 0 01-1.387 2.022c-1.204 1.203-2.638 1.825-4.35 1.886-1.367.049-2.64-.322-3.814-1.113-.523-.351-1.35-1.193-1.718-1.75-.626-.944-.948-1.878-1.067-3.091-.052-.529-.011-1.127.12-1.773.397-1.94 1.698-3.586 3.544-4.48.757-.367 1.34-.526 2.277-.62.529-.052 1.109-.011 1.786.126 1.185.24 2.234.801 3.14 1.68 1.122 1.088 1.72 2.27 1.921 3.802.034.259.081.565.104.681.087.434.474.637.759.398.243-.204.292-.456.21-1.078-.121-.927-.336-1.685-.682-2.403-.768-1.593-1.968-2.8-3.53-3.546C9.465.14 7.959-.12 6.686.052zm.531 3.116c-.168.103-.296.304-.686 1.076C6 5.292 5.932 5.342 4.788 5.507c-.994.143-1.186.202-1.334.411-.245.346-.14.553.728 1.45.551.57.682.727.734.879.087.254.084.308-.075 1.25-.149.88-.151 1.063-.018 1.281a.584.584 0 00.215.185c.23.11.463.061.957-.196 1.237-.643 1.144-.606 1.514-.606.371 0 .28-.036 1.528.613.383.2.462.227.658.228.242.002.364-.06.515-.262.11-.147.1-.544-.031-1.23-.236-1.237-.244-1.21.655-2.14.8-.828.892-.974.809-1.275-.05-.183-.217-.337-.445-.412-.1-.032-.522-.11-.939-.174-.874-.132-1.074-.202-1.295-.454-.085-.095-.302-.468-.484-.828-.502-.994-.62-1.132-.97-1.132a.618.618 0 00-.294.073zm.423 2.048c.095.04.176.132.312.354.343.56.542.706 1.142.838.647.142.699.433.178 1.001-.295.32-.324.42-.324 1.08v.587l-.113.097c-.096.083-.138.094-.287.076a1.871 1.871 0 01-.443-.147c-.238-.112-.306-.126-.595-.126-.288 0-.356.014-.594.126a1.895 1.895 0 01-.443.147c-.149.018-.191.007-.287-.076l-.113-.097v-.587c0-.66-.03-.76-.324-1.08-.497-.541-.462-.87.103-.982.4-.079.604-.149.747-.257.164-.125.22-.195.468-.6.129-.208.222-.316.305-.352.148-.065.119-.064.268-.002z" fill="url(#paint0_linear)"/><defs><linearGradient id="paint0_linear" x1="12.616" y1="0" x2="-.409" y2=".443" gradientUnits="userSpaceOnUse"><stop stop-color="#FFF9C6"/><stop offset="1" stop-color="#FFD8AB"/></linearGradient></defs></svg>