<svg width="13" height="18" viewBox="0 0 13 18" fill="none" xmlns="http://www.w3.org/2000/svg">
<path d="M6.94216 13.8128C6.7805 14.0708 6.85375 14.4147 7.10527 14.5802L12.1664 17.9118C12.2555 17.9706 12.3573 17.9995 12.4587 17.9995C12.5785 17.9995 12.6983 17.9588 12.7964 17.8781C12.9776 17.73 13.0465 17.479 12.9678 17.2551L7.00929 0.366105C6.9317 0.14622 6.72817 0 6.50011 0C6.2724 0 6.06888 0.14659 5.99093 0.366105L0.0323679 17.2554C-0.046661 17.479 0.0222637 17.73 0.203778 17.8784C0.384931 18.0272 0.638617 18.0406 0.833844 17.9121L5.89494 14.5805C6.14646 14.4151 6.21972 14.0712 6.05805 13.8132C5.89675 13.5555 5.5615 13.4811 5.31034 13.6458L1.59454 16.092L6.50047 2.18701L11.4064 16.092L7.69023 13.6455C7.43835 13.48 7.10383 13.5551 6.94216 13.8128Z" fill="url(#paint0_linear)"/>
<defs>
<linearGradient id="paint0_linear" x1="10.9336" y1="-7.62895e-06" x2="-0.360449" y2="0.277372" gradientUnits="userSpaceOnUse">
<stop stop-color="#FFF9C6"/>
<stop offset="1" stop-color="#FFD8AB"/>
</linearGradient>
</defs>
</svg>
