<svg width="110" height="106" viewBox="0 0 110 106" fill="none" xmlns="http://www.w3.org/2000/svg">
<path opacity="0.3" d="M33.0338 1L1.0481 104.76H84.0111L109 52.8798L84.0111 1H33.0338Z" stroke="url(#paint0_linear)" stroke-width="0.5"/>
<path d="M0.877378 66.0165C0.392188 66.0165 0 65.6261 0 65.1432C0 60.8083 3.54285 57.282 7.89815 57.282C8.38334 57.282 8.77553 57.6724 8.77553 58.1553C8.77553 58.6382 8.38334 59.0286 7.89815 59.0286C4.5106 59.0286 1.75476 61.7715 1.75476 65.1432C1.75476 65.6261 1.36257 66.0165 0.877378 66.0165Z" fill="url(#paint1_linear)"/>
<path d="M39.482 66.0156C38.9968 66.0156 38.6046 65.6252 38.6046 65.1423C38.6046 61.7724 35.8488 59.0294 32.463 59.0294C31.9778 59.0294 31.5856 58.6391 31.5856 58.1562C31.5856 57.6733 31.9778 57.2829 32.463 57.2829C36.8174 57.2829 40.3594 60.8083 40.3594 65.1423C40.3594 65.6252 39.9672 66.0156 39.482 66.0156Z" fill="url(#paint2_linear)"/>
<path d="M7.89815 59.0286C7.41384 59.0286 7.02078 58.6382 7.02078 58.1553C7.02078 57.6733 7.41296 57.282 7.89815 57.282L12.2842 57.2812C12.7685 57.2812 13.1615 57.6715 13.1615 58.1544C13.1615 58.6365 12.7694 59.0277 12.2842 59.0277L7.89815 59.0286Z" fill="url(#paint3_linear)"/>
<path d="M0.878255 72.9991C0.393943 72.9991 0.000877314 72.6088 0.000877314 72.1259L0 65.1432C0 64.6612 0.392188 64.2699 0.877378 64.2699C1.36169 64.2699 1.75476 64.6603 1.75476 65.1432L1.75563 72.1259C1.75563 72.6079 1.36344 72.9991 0.878255 72.9991Z" fill="url(#paint4_linear)"/>
<path d="M39.482 72.9991C38.9968 72.9991 38.6046 72.6088 38.6046 72.1259V65.1423C38.6046 64.6594 38.9968 64.2691 39.482 64.2691C39.9672 64.2691 40.3594 64.6594 40.3594 65.1423V72.1259C40.3594 72.6088 39.9672 72.9991 39.482 72.9991Z" fill="url(#paint5_linear)"/>
<path d="M14.038 57.2812C13.5529 57.2812 13.1607 56.8908 13.1607 56.4079V53.1515C13.1607 52.6686 13.5529 52.2782 14.038 52.2782C14.5232 52.2782 14.9154 52.6686 14.9154 53.1515V56.4079C14.9154 56.8908 14.5232 57.2812 14.038 57.2812Z" fill="url(#paint6_linear)"/>
<path d="M26.3213 57.2812C25.8361 57.2812 25.444 56.8908 25.444 56.4079V53.1515C25.444 52.6686 25.8361 52.2782 26.3213 52.2782C26.8065 52.2782 27.1987 52.6686 27.1987 53.1515V56.4079C27.1987 56.8908 26.8065 57.2812 26.3213 57.2812Z" fill="url(#paint7_linear)"/>
<path d="M20.1797 55.5355C12.4395 55.5355 6.14164 49.2672 6.14164 41.5632C6.14164 41.0803 6.53383 40.6899 7.01902 40.6899C7.50421 40.6899 7.8964 41.0803 7.8964 41.5632C7.8964 48.3048 13.4063 53.789 20.1797 53.789C26.953 53.789 32.463 48.3048 32.463 41.5632C32.463 41.0803 32.8552 40.6899 33.3404 40.6899C33.8255 40.6899 34.2177 41.0803 34.2177 41.5632C34.2177 49.2672 27.9199 55.5355 20.1797 55.5355Z" fill="url(#paint8_linear)"/>
<path d="M7.01902 42.4365C7.01814 42.4365 7.01727 42.4365 7.01639 42.4365C6.5312 42.4347 6.13989 42.0426 6.14164 41.5606L6.15568 37.2073C6.15744 36.7253 6.54962 36.3367 7.03306 36.3367H7.03569C7.52088 36.3384 7.91219 36.7305 7.91044 37.2126L7.8964 41.5658C7.89464 42.0479 7.50246 42.4365 7.01902 42.4365Z" fill="url(#paint9_linear)"/>
<path d="M33.3404 42.4365C32.8552 42.4365 32.463 42.0461 32.463 41.5632V37.21C32.463 36.727 32.8552 36.3367 33.3404 36.3367C33.8255 36.3367 34.2177 36.727 34.2177 37.21V41.5632C34.2177 42.0461 33.8255 42.4365 33.3404 42.4365Z" fill="url(#paint10_linear)"/>
<path d="M15.4041 60.776C15.0944 60.776 14.7952 60.6127 14.6347 60.3245C14.4004 59.9018 14.5548 59.37 14.9795 59.1377L19.755 56.5162C20.1797 56.2839 20.7131 56.4376 20.9474 56.8594C21.1817 57.282 21.0272 57.8139 20.6026 58.0461L15.827 60.6677C15.6937 60.7411 15.548 60.776 15.4041 60.776Z" fill="url(#paint11_linear)"/>
<path d="M24.9544 60.776C24.8114 60.776 24.6657 60.7411 24.5315 60.6677L19.7559 58.0461C19.3321 57.813 19.1777 57.282 19.4111 56.8594C19.6462 56.4385 20.1788 56.2848 20.6035 56.5162L25.379 59.1377C25.8028 59.3709 25.9572 59.9018 25.7238 60.3245C25.5642 60.6136 25.2641 60.776 24.9544 60.776Z" fill="url(#paint12_linear)"/>
<path d="M10.5285 60.776C10.3039 60.776 10.0793 60.6904 9.90823 60.5201C9.56517 60.1787 9.56517 59.6268 9.90823 59.2853L13.4177 55.7905C13.7608 55.449 14.3153 55.449 14.6583 55.7905C15.0014 56.1319 15.0014 56.6838 14.6583 57.0253L11.1488 60.5201C10.9777 60.6913 10.7531 60.776 10.5285 60.776Z" fill="url(#paint13_linear)"/>
<path d="M14.038 64.2673C13.8134 64.2673 13.5888 64.1817 13.4177 64.0114L9.90823 60.5201C9.56517 60.1787 9.56517 59.6268 9.90823 59.2853C10.2513 58.9439 10.8058 58.9439 11.1488 59.2853L14.6583 62.7766C15.0014 63.1181 15.0014 63.67 14.6583 64.0114C14.4873 64.1826 14.2627 64.2673 14.038 64.2673Z" fill="url(#paint14_linear)"/>
<path d="M12.2833 66.0138C12.0587 66.0138 11.8341 65.9283 11.663 65.758C11.3199 65.4165 11.3199 64.8646 11.663 64.5232L13.4177 62.7766C13.7608 62.4352 14.3153 62.4352 14.6583 62.7766C15.0014 63.1181 15.0014 63.67 14.6583 64.0114L12.9036 65.758C12.7325 65.9291 12.5079 66.0138 12.2833 66.0138Z" fill="url(#paint15_linear)"/>
<path d="M17.5484 73C17.2808 73 17.0185 72.8795 16.8456 72.6507L11.5814 65.6645C11.2901 65.2794 11.3691 64.7319 11.7569 64.4428C12.1438 64.1529 12.693 64.2306 12.9843 64.6175L18.2486 71.6036C18.5399 71.9887 18.4609 72.5363 18.0731 72.8253C17.9161 72.9432 17.7318 73 17.5484 73Z" fill="url(#paint16_linear)"/>
<path d="M20.1797 73C19.8287 73 19.4971 72.7887 19.362 72.4428L13.2203 56.724C13.0449 56.2743 13.2686 55.7687 13.7196 55.594C14.1705 55.4193 14.6803 55.642 14.8549 56.0909L20.9965 71.8097C21.172 72.2595 20.9483 72.7651 20.4973 72.9397C20.3929 72.9817 20.2858 73 20.1797 73Z" fill="url(#paint17_linear)"/>
<path d="M29.8308 60.776C29.6062 60.776 29.3816 60.6904 29.2105 60.5201L25.701 57.0253C25.358 56.6838 25.358 56.1319 25.701 55.7905C26.0441 55.449 26.5986 55.449 26.9416 55.7905L30.4511 59.2853C30.7942 59.6268 30.7942 60.1787 30.4511 60.5201C30.2801 60.6913 30.0555 60.776 29.8308 60.776Z" fill="url(#paint18_linear)"/>
<path d="M26.3213 64.2673C26.0967 64.2673 25.8721 64.1817 25.701 64.0114C25.358 63.67 25.358 63.1181 25.701 62.7766L29.2105 59.2853C29.5536 58.9439 30.1081 58.9439 30.4511 59.2853C30.7942 59.6268 30.7942 60.1787 30.4511 60.5201L26.9416 64.0114C26.7705 64.1826 26.5459 64.2673 26.3213 64.2673Z" fill="url(#paint19_linear)"/>
<path d="M28.0761 66.0138C27.8515 66.0138 27.6269 65.9283 27.4558 65.758L25.701 64.0114C25.358 63.67 25.358 63.1181 25.701 62.7766C26.0441 62.4352 26.5986 62.4352 26.9416 62.7766L28.6964 64.5232C29.0394 64.8646 29.0394 65.4165 28.6964 65.758C28.5253 65.9291 28.3007 66.0138 28.0761 66.0138Z" fill="url(#paint20_linear)"/>
<path d="M22.8109 73C22.6276 73 22.4433 72.9432 22.2854 72.8253C21.8976 72.5363 21.8186 71.9887 22.1099 71.6036L27.3742 64.6175C27.6655 64.2315 28.2147 64.1547 28.6016 64.4428C28.9894 64.7319 29.0684 65.2794 28.7771 65.6645L23.5128 72.6507C23.3409 72.8804 23.0785 73 22.8109 73Z" fill="url(#paint21_linear)"/>
<path d="M20.1797 73C20.0735 73 19.9665 72.9817 19.8621 72.9406C19.4102 72.766 19.1865 72.2603 19.3628 71.8106L25.5045 56.0918C25.68 55.642 26.1897 55.4185 26.6398 55.5949C27.0917 55.7695 27.3154 56.2752 27.139 56.7249L20.9974 72.4437C20.8623 72.7887 20.5306 73 20.1797 73Z" fill="url(#paint22_linear)"/>
<path d="M32.463 59.0294H28.0761C27.5909 59.0294 27.1987 58.6391 27.1987 58.1562C27.1987 57.6733 27.5909 57.2829 28.0761 57.2829H32.463C32.9482 57.2829 33.3404 57.6733 33.3404 58.1562C33.3404 58.6391 32.9482 59.0294 32.463 59.0294Z" fill="url(#paint23_linear)"/>
<path d="M17.4502 66.0138C17.3361 66.0138 17.2203 65.992 17.1089 65.9449C16.6623 65.7571 16.4535 65.2445 16.6421 64.8009L18.4942 60.4363C18.6829 59.9909 19.1979 59.7839 19.6436 59.9717C20.0902 60.1595 20.299 60.6721 20.1104 61.1157L18.2582 65.4803C18.1161 65.8139 17.7915 66.0138 17.4502 66.0138Z" fill="url(#paint24_linear)"/>
<path d="M22.9092 66.0138C22.567 66.0138 22.2424 65.8139 22.1011 65.4803L20.249 61.1139C20.0604 60.6694 20.2692 60.1577 20.7158 59.97C21.1615 59.7822 21.6765 59.99 21.8651 60.4345L23.7173 64.8009C23.9059 65.2454 23.6971 65.7571 23.2505 65.9449C23.1391 65.992 23.0233 66.0138 22.9092 66.0138Z" fill="url(#paint25_linear)"/>
<path d="M21.0571 61.6493H19.3023C18.8171 61.6493 18.4249 61.2589 18.4249 60.776C18.4249 60.2931 18.8171 59.9027 19.3023 59.9027H21.0571C21.5423 59.9027 21.9344 60.2931 21.9344 60.776C21.9344 61.2589 21.5423 61.6493 21.0571 61.6493Z" fill="url(#paint26_linear)"/>
<path d="M21.0571 61.6493C20.8561 61.6493 20.6535 61.5811 20.4885 61.4405C20.1191 61.1288 20.0753 60.5769 20.3903 60.2101L22.145 58.1597C22.4591 57.7911 23.0127 57.7475 23.3812 58.0619C23.7506 58.3736 23.7945 58.9255 23.4795 59.2923L21.7247 61.3427C21.551 61.5453 21.3045 61.6493 21.0571 61.6493Z" fill="url(#paint27_linear)"/>
<path d="M19.3023 61.6493C19.0549 61.6493 18.8083 61.5453 18.6346 61.3419L16.8799 59.2914C16.5658 58.9247 16.6088 58.3727 16.9781 58.061C17.3475 57.7475 17.9011 57.7903 18.2144 58.1588L19.9691 60.2092C20.2832 60.576 20.2402 61.1279 19.8708 61.4397C19.7059 61.5811 19.5032 61.6493 19.3023 61.6493Z" fill="url(#paint28_linear)"/>
<path d="M33.3404 34.5744C32.8552 34.5744 32.463 34.1841 32.463 33.7012C32.463 28.2249 28.7648 23.3809 23.4699 21.919C23.0031 21.7907 22.7293 21.3086 22.8592 20.844C22.989 20.3794 23.4725 20.1087 23.9393 20.2362C29.9905 21.9068 34.2177 27.4442 34.2177 33.702C34.2177 34.1841 33.8255 34.5744 33.3404 34.5744Z" fill="url(#paint29_linear)"/>
<path d="M7.01902 34.5744C6.53383 34.5744 6.14164 34.1841 6.14164 33.7012C6.14164 27.4267 10.3811 21.8867 16.4526 20.2275C16.9185 20.0983 17.4028 20.3716 17.5309 20.8379C17.659 21.3025 17.3852 21.7837 16.9176 21.9112C11.606 23.3634 7.89728 28.2118 7.89728 33.7012C7.8964 34.1841 7.50421 34.5744 7.01902 34.5744Z" fill="url(#paint30_linear)"/>
<path d="M23.705 20.2205C23.6269 20.2205 23.5479 20.21 23.4699 20.1891C21.3431 19.6022 19.0347 19.6022 16.915 20.1803C16.4535 20.3061 15.9656 20.0354 15.8367 19.5699C15.7086 19.1054 15.9823 18.6242 16.45 18.4967C18.8724 17.8313 21.508 17.8347 23.9366 18.5054C24.4034 18.6338 24.678 19.115 24.5482 19.5795C24.442 19.9673 24.0893 20.2205 23.705 20.2205Z" fill="url(#paint31_linear)"/>
<path d="M34.2309 38.0832H6.15568C5.67049 38.0832 5.2783 37.6929 5.2783 37.21V33.7151C5.2783 33.2322 5.67049 32.8419 6.15568 32.8419H34.2309C34.7161 32.8419 35.1083 33.2322 35.1083 33.7151V37.21C35.1083 37.6929 34.7161 38.0832 34.2309 38.0832ZM7.03306 36.3367H33.3535V34.5884H7.03306V36.3367Z" fill="url(#paint32_linear)"/>
<path d="M16.6833 24.9842C16.1981 24.9842 15.806 24.5938 15.806 24.1109V19.3385C15.806 18.8556 16.1981 18.4652 16.6833 18.4652C17.1685 18.4652 17.5607 18.8556 17.5607 19.3385V24.1109C17.5607 24.5938 17.1685 24.9842 16.6833 24.9842Z" fill="url(#paint33_linear)"/>
<path d="M23.7041 24.9842C23.2189 24.9842 22.8267 24.5938 22.8267 24.1109V19.3472C22.8267 18.8643 23.2189 18.474 23.7041 18.474C24.1893 18.474 24.5815 18.8643 24.5815 19.3472V24.1109C24.5815 24.5938 24.1893 24.9842 23.7041 24.9842Z" fill="url(#paint34_linear)"/>
<path d="M44.7357 56.414C41.3499 56.414 38.5941 53.6711 38.5941 50.3011C38.5941 46.9312 41.3499 44.1882 44.7357 44.1882C45.2209 44.1882 45.6131 44.5786 45.6131 45.0615C45.6131 45.5444 45.2209 45.9348 44.7357 45.9348C42.3168 45.9348 40.3488 47.8935 40.3488 50.3011C40.3488 52.7087 42.3168 54.6675 44.7357 54.6675C45.2209 54.6675 45.6131 55.0578 45.6131 55.5407C45.6131 56.0237 45.2209 56.414 44.7357 56.414Z" fill="url(#paint35_linear)"/>
<path d="M45.1744 53.7942C44.6892 53.7942 44.297 53.4039 44.297 52.9209C44.297 52.438 44.6892 52.0477 45.1744 52.0477C46.8678 52.0477 48.2452 50.6766 48.2452 48.9912C48.2452 47.3058 46.8678 45.9348 45.1744 45.9348C44.6892 45.9348 44.297 45.5444 44.297 45.0615C44.297 44.5786 44.6892 44.1882 45.1744 44.1882C47.8346 44.1882 50 46.3435 50 48.9912C50 51.639 47.8346 53.7942 45.1744 53.7942Z" fill="url(#paint36_linear)"/>
<path d="M45.1744 51.1779C44.6892 51.1779 44.297 50.7875 44.297 50.3046C44.297 49.8217 44.6892 49.4314 45.1744 49.4314C45.4166 49.4314 45.6149 49.234 45.6149 48.993C45.6149 48.7519 45.4166 48.5546 45.1744 48.5546C44.6892 48.5546 44.297 48.1642 44.297 47.6813C44.297 47.1984 44.6892 46.8081 45.1744 46.8081C46.3852 46.8081 47.3696 47.7879 47.3696 48.993C47.3696 50.1981 46.3852 51.1779 45.1744 51.1779Z" fill="url(#paint37_linear)"/>
<path d="M44.7357 53.7942C42.8002 53.7942 41.2262 52.2276 41.2262 50.3011C41.2262 48.3747 42.8002 46.8081 44.7357 46.8081C45.2209 46.8081 45.6131 47.1984 45.6131 47.6813C45.6131 48.1642 45.2209 48.5546 44.7357 48.5546C43.768 48.5546 42.981 49.3379 42.981 50.3011C42.981 51.2643 43.768 52.0477 44.7357 52.0477C45.2209 52.0477 45.6131 52.438 45.6131 52.9209C45.6131 53.4039 45.2209 53.7942 44.7357 53.7942Z" fill="url(#paint38_linear)"/>
<path d="M44.7357 73C44.2505 73 43.8584 72.6096 43.8584 72.1267V55.5407C43.8584 55.0578 44.2505 54.6675 44.7357 54.6675C45.2209 54.6675 45.6131 55.0578 45.6131 55.5407V72.1267C45.6131 72.6096 45.2209 73 44.7357 73Z" fill="url(#paint39_linear)"/>
<path d="M39.4715 72.9991C38.9863 72.9991 38.5941 72.6088 38.5941 72.1259V50.3011C38.5941 49.8182 38.9863 49.4279 39.4715 49.4279C39.9567 49.4279 40.3488 49.8182 40.3488 50.3011V72.1259C40.3488 72.6088 39.9567 72.9991 39.4715 72.9991Z" fill="url(#paint40_linear)"/>
<path d="M44.7375 53.7942C44.2523 53.7942 43.8601 53.4039 43.8601 52.9209V50.3046C43.8601 49.8217 44.2523 49.4314 44.7375 49.4314C45.2227 49.4314 45.6149 49.8217 45.6149 50.3046V52.9209C45.6149 53.4039 45.2227 53.7942 44.7375 53.7942Z" fill="url(#paint41_linear)"/>
<path d="M45.1744 51.1779H44.7375C44.2523 51.1779 43.8601 50.7875 43.8601 50.3046C43.8601 49.8217 44.2523 49.4314 44.7375 49.4314H45.1744C45.6596 49.4314 46.0518 49.8217 46.0518 50.3046C46.0518 50.7875 45.6596 51.1779 45.1744 51.1779Z" fill="url(#paint42_linear)"/>
<path d="M45.1744 53.7942H44.7357C44.2505 53.7942 43.8584 53.4039 43.8584 52.9209C43.8584 52.438 44.2505 52.0477 44.7357 52.0477H45.1744C45.6596 52.0477 46.0518 52.438 46.0518 52.9209C46.0518 53.4039 45.6596 53.7942 45.1744 53.7942Z" fill="url(#paint43_linear)"/>
<path d="M45.1744 48.5546H44.7357C44.2505 48.5546 43.8584 48.1642 43.8584 47.6813C43.8584 47.1984 44.2505 46.8081 44.7357 46.8081H45.1744C45.6596 46.8081 46.0518 47.1984 46.0518 47.6813C46.0518 48.1642 45.6596 48.5546 45.1744 48.5546Z" fill="url(#paint44_linear)"/>
<path d="M49.1226 72.9991C48.6374 72.9991 48.2452 72.6088 48.2452 72.1259V48.9912C48.2452 48.5083 48.6374 48.118 49.1226 48.118C49.6078 48.118 50 48.5083 50 48.9912V72.1259C50 72.6088 49.6078 72.9991 49.1226 72.9991Z" fill="url(#paint45_linear)"/>
<path d="M45.1744 45.9348H44.7357C44.2505 45.9348 43.8584 45.5444 43.8584 45.0615C43.8584 44.5786 44.2505 44.1882 44.7357 44.1882H45.1744C45.6596 44.1882 46.0518 44.5786 46.0518 45.0615C46.0518 45.5444 45.6596 45.9348 45.1744 45.9348Z" fill="url(#paint46_linear)"/>
<defs>
<linearGradient id="paint0_linear" x1="91.841" y1="0.999956" x2="-1.88432" y2="4.31593" gradientUnits="userSpaceOnUse">
<stop stop-color="#FFF9C6"/>
<stop offset="1" stop-color="#FFD8AB"/>
</linearGradient>
<linearGradient id="paint1_linear" x1="42.0525" y1="18" x2="-1.37105" y2="19.3424" gradientUnits="userSpaceOnUse">
<stop stop-color="#FFF9C6"/>
<stop offset="1" stop-color="#FFD8AB"/>
</linearGradient>
<linearGradient id="paint2_linear" x1="42.0525" y1="18" x2="-1.37105" y2="19.3424" gradientUnits="userSpaceOnUse">
<stop stop-color="#FFF9C6"/>
<stop offset="1" stop-color="#FFD8AB"/>
</linearGradient>
<linearGradient id="paint3_linear" x1="42.0525" y1="18" x2="-1.37105" y2="19.3424" gradientUnits="userSpaceOnUse">
<stop stop-color="#FFF9C6"/>
<stop offset="1" stop-color="#FFD8AB"/>
</linearGradient>
<linearGradient id="paint4_linear" x1="42.0525" y1="18" x2="-1.37105" y2="19.3424" gradientUnits="userSpaceOnUse">
<stop stop-color="#FFF9C6"/>
<stop offset="1" stop-color="#FFD8AB"/>
</linearGradient>
<linearGradient id="paint5_linear" x1="42.0525" y1="18" x2="-1.37105" y2="19.3424" gradientUnits="userSpaceOnUse">
<stop stop-color="#FFF9C6"/>
<stop offset="1" stop-color="#FFD8AB"/>
</linearGradient>
<linearGradient id="paint6_linear" x1="42.0525" y1="18" x2="-1.37105" y2="19.3424" gradientUnits="userSpaceOnUse">
<stop stop-color="#FFF9C6"/>
<stop offset="1" stop-color="#FFD8AB"/>
</linearGradient>
<linearGradient id="paint7_linear" x1="42.0525" y1="18" x2="-1.37105" y2="19.3424" gradientUnits="userSpaceOnUse">
<stop stop-color="#FFF9C6"/>
<stop offset="1" stop-color="#FFD8AB"/>
</linearGradient>
<linearGradient id="paint8_linear" x1="42.0525" y1="18" x2="-1.37105" y2="19.3424" gradientUnits="userSpaceOnUse">
<stop stop-color="#FFF9C6"/>
<stop offset="1" stop-color="#FFD8AB"/>
</linearGradient>
<linearGradient id="paint9_linear" x1="42.0525" y1="18" x2="-1.37105" y2="19.3424" gradientUnits="userSpaceOnUse">
<stop stop-color="#FFF9C6"/>
<stop offset="1" stop-color="#FFD8AB"/>
</linearGradient>
<linearGradient id="paint10_linear" x1="42.0525" y1="18" x2="-1.37105" y2="19.3424" gradientUnits="userSpaceOnUse">
<stop stop-color="#FFF9C6"/>
<stop offset="1" stop-color="#FFD8AB"/>
</linearGradient>
<linearGradient id="paint11_linear" x1="42.0525" y1="18" x2="-1.37105" y2="19.3424" gradientUnits="userSpaceOnUse">
<stop stop-color="#FFF9C6"/>
<stop offset="1" stop-color="#FFD8AB"/>
</linearGradient>
<linearGradient id="paint12_linear" x1="42.0525" y1="18" x2="-1.37105" y2="19.3424" gradientUnits="userSpaceOnUse">
<stop stop-color="#FFF9C6"/>
<stop offset="1" stop-color="#FFD8AB"/>
</linearGradient>
<linearGradient id="paint13_linear" x1="42.0525" y1="18" x2="-1.37105" y2="19.3424" gradientUnits="userSpaceOnUse">
<stop stop-color="#FFF9C6"/>
<stop offset="1" stop-color="#FFD8AB"/>
</linearGradient>
<linearGradient id="paint14_linear" x1="42.0525" y1="18" x2="-1.37105" y2="19.3424" gradientUnits="userSpaceOnUse">
<stop stop-color="#FFF9C6"/>
<stop offset="1" stop-color="#FFD8AB"/>
</linearGradient>
<linearGradient id="paint15_linear" x1="42.0525" y1="18" x2="-1.37105" y2="19.3424" gradientUnits="userSpaceOnUse">
<stop stop-color="#FFF9C6"/>
<stop offset="1" stop-color="#FFD8AB"/>
</linearGradient>
<linearGradient id="paint16_linear" x1="42.0525" y1="18" x2="-1.37105" y2="19.3424" gradientUnits="userSpaceOnUse">
<stop stop-color="#FFF9C6"/>
<stop offset="1" stop-color="#FFD8AB"/>
</linearGradient>
<linearGradient id="paint17_linear" x1="42.0525" y1="18" x2="-1.37105" y2="19.3424" gradientUnits="userSpaceOnUse">
<stop stop-color="#FFF9C6"/>
<stop offset="1" stop-color="#FFD8AB"/>
</linearGradient>
<linearGradient id="paint18_linear" x1="42.0525" y1="18" x2="-1.37105" y2="19.3424" gradientUnits="userSpaceOnUse">
<stop stop-color="#FFF9C6"/>
<stop offset="1" stop-color="#FFD8AB"/>
</linearGradient>
<linearGradient id="paint19_linear" x1="42.0525" y1="18" x2="-1.37105" y2="19.3424" gradientUnits="userSpaceOnUse">
<stop stop-color="#FFF9C6"/>
<stop offset="1" stop-color="#FFD8AB"/>
</linearGradient>
<linearGradient id="paint20_linear" x1="42.0525" y1="18" x2="-1.37105" y2="19.3424" gradientUnits="userSpaceOnUse">
<stop stop-color="#FFF9C6"/>
<stop offset="1" stop-color="#FFD8AB"/>
</linearGradient>
<linearGradient id="paint21_linear" x1="42.0525" y1="18" x2="-1.37105" y2="19.3424" gradientUnits="userSpaceOnUse">
<stop stop-color="#FFF9C6"/>
<stop offset="1" stop-color="#FFD8AB"/>
</linearGradient>
<linearGradient id="paint22_linear" x1="42.0525" y1="18" x2="-1.37105" y2="19.3424" gradientUnits="userSpaceOnUse">
<stop stop-color="#FFF9C6"/>
<stop offset="1" stop-color="#FFD8AB"/>
</linearGradient>
<linearGradient id="paint23_linear" x1="42.0525" y1="18" x2="-1.37105" y2="19.3424" gradientUnits="userSpaceOnUse">
<stop stop-color="#FFF9C6"/>
<stop offset="1" stop-color="#FFD8AB"/>
</linearGradient>
<linearGradient id="paint24_linear" x1="42.0525" y1="18" x2="-1.37105" y2="19.3424" gradientUnits="userSpaceOnUse">
<stop stop-color="#FFF9C6"/>
<stop offset="1" stop-color="#FFD8AB"/>
</linearGradient>
<linearGradient id="paint25_linear" x1="42.0525" y1="18" x2="-1.37105" y2="19.3424" gradientUnits="userSpaceOnUse">
<stop stop-color="#FFF9C6"/>
<stop offset="1" stop-color="#FFD8AB"/>
</linearGradient>
<linearGradient id="paint26_linear" x1="42.0525" y1="18" x2="-1.37105" y2="19.3424" gradientUnits="userSpaceOnUse">
<stop stop-color="#FFF9C6"/>
<stop offset="1" stop-color="#FFD8AB"/>
</linearGradient>
<linearGradient id="paint27_linear" x1="42.0525" y1="18" x2="-1.37105" y2="19.3424" gradientUnits="userSpaceOnUse">
<stop stop-color="#FFF9C6"/>
<stop offset="1" stop-color="#FFD8AB"/>
</linearGradient>
<linearGradient id="paint28_linear" x1="42.0525" y1="18" x2="-1.37105" y2="19.3424" gradientUnits="userSpaceOnUse">
<stop stop-color="#FFF9C6"/>
<stop offset="1" stop-color="#FFD8AB"/>
</linearGradient>
<linearGradient id="paint29_linear" x1="42.0525" y1="18" x2="-1.37105" y2="19.3424" gradientUnits="userSpaceOnUse">
<stop stop-color="#FFF9C6"/>
<stop offset="1" stop-color="#FFD8AB"/>
</linearGradient>
<linearGradient id="paint30_linear" x1="42.0525" y1="18" x2="-1.37105" y2="19.3424" gradientUnits="userSpaceOnUse">
<stop stop-color="#FFF9C6"/>
<stop offset="1" stop-color="#FFD8AB"/>
</linearGradient>
<linearGradient id="paint31_linear" x1="42.0525" y1="18" x2="-1.37105" y2="19.3424" gradientUnits="userSpaceOnUse">
<stop stop-color="#FFF9C6"/>
<stop offset="1" stop-color="#FFD8AB"/>
</linearGradient>
<linearGradient id="paint32_linear" x1="42.0525" y1="18" x2="-1.37105" y2="19.3424" gradientUnits="userSpaceOnUse">
<stop stop-color="#FFF9C6"/>
<stop offset="1" stop-color="#FFD8AB"/>
</linearGradient>
<linearGradient id="paint33_linear" x1="42.0525" y1="18" x2="-1.37105" y2="19.3424" gradientUnits="userSpaceOnUse">
<stop stop-color="#FFF9C6"/>
<stop offset="1" stop-color="#FFD8AB"/>
</linearGradient>
<linearGradient id="paint34_linear" x1="42.0525" y1="18" x2="-1.37105" y2="19.3424" gradientUnits="userSpaceOnUse">
<stop stop-color="#FFF9C6"/>
<stop offset="1" stop-color="#FFD8AB"/>
</linearGradient>
<linearGradient id="paint35_linear" x1="42.0525" y1="18" x2="-1.37105" y2="19.3424" gradientUnits="userSpaceOnUse">
<stop stop-color="#FFF9C6"/>
<stop offset="1" stop-color="#FFD8AB"/>
</linearGradient>
<linearGradient id="paint36_linear" x1="42.0525" y1="18" x2="-1.37105" y2="19.3424" gradientUnits="userSpaceOnUse">
<stop stop-color="#FFF9C6"/>
<stop offset="1" stop-color="#FFD8AB"/>
</linearGradient>
<linearGradient id="paint37_linear" x1="42.0525" y1="18" x2="-1.37105" y2="19.3424" gradientUnits="userSpaceOnUse">
<stop stop-color="#FFF9C6"/>
<stop offset="1" stop-color="#FFD8AB"/>
</linearGradient>
<linearGradient id="paint38_linear" x1="42.0525" y1="18" x2="-1.37105" y2="19.3424" gradientUnits="userSpaceOnUse">
<stop stop-color="#FFF9C6"/>
<stop offset="1" stop-color="#FFD8AB"/>
</linearGradient>
<linearGradient id="paint39_linear" x1="42.0525" y1="18" x2="-1.37105" y2="19.3424" gradientUnits="userSpaceOnUse">
<stop stop-color="#FFF9C6"/>
<stop offset="1" stop-color="#FFD8AB"/>
</linearGradient>
<linearGradient id="paint40_linear" x1="42.0525" y1="18" x2="-1.37105" y2="19.3424" gradientUnits="userSpaceOnUse">
<stop stop-color="#FFF9C6"/>
<stop offset="1" stop-color="#FFD8AB"/>
</linearGradient>
<linearGradient id="paint41_linear" x1="42.0525" y1="18" x2="-1.37105" y2="19.3424" gradientUnits="userSpaceOnUse">
<stop stop-color="#FFF9C6"/>
<stop offset="1" stop-color="#FFD8AB"/>
</linearGradient>
<linearGradient id="paint42_linear" x1="42.0525" y1="18" x2="-1.37105" y2="19.3424" gradientUnits="userSpaceOnUse">
<stop stop-color="#FFF9C6"/>
<stop offset="1" stop-color="#FFD8AB"/>
</linearGradient>
<linearGradient id="paint43_linear" x1="42.0525" y1="18" x2="-1.37105" y2="19.3424" gradientUnits="userSpaceOnUse">
<stop stop-color="#FFF9C6"/>
<stop offset="1" stop-color="#FFD8AB"/>
</linearGradient>
<linearGradient id="paint44_linear" x1="42.0525" y1="18" x2="-1.37105" y2="19.3424" gradientUnits="userSpaceOnUse">
<stop stop-color="#FFF9C6"/>
<stop offset="1" stop-color="#FFD8AB"/>
</linearGradient>
<linearGradient id="paint45_linear" x1="42.0525" y1="18" x2="-1.37105" y2="19.3424" gradientUnits="userSpaceOnUse">
<stop stop-color="#FFF9C6"/>
<stop offset="1" stop-color="#FFD8AB"/>
</linearGradient>
<linearGradient id="paint46_linear" x1="42.0525" y1="18" x2="-1.37105" y2="19.3424" gradientUnits="userSpaceOnUse">
<stop stop-color="#FFF9C6"/>
<stop offset="1" stop-color="#FFD8AB"/>
</linearGradient>
</defs>
</svg>
