<svg width="24" height="23" viewBox="0 0 24 23" fill="none" xmlns="http://www.w3.org/2000/svg">
<path d="M23.7418 0.282442C23.3888 -0.0850698 22.8064 -0.0952602 22.4409 0.259676C22.4332 0.267102 22.4257 0.27469 22.4183 0.282442L7.4287 15.3552L2.55913 10.4586C2.19365 10.1037 1.61124 10.1139 1.25826 10.4814C0.913912 10.8399 0.913912 11.4082 1.25826 11.7667L6.77827 17.3174C7.13755 17.6785 7.7199 17.6785 8.07913 17.3174L23.7191 1.59058C24.0846 1.23559 24.0947 0.649953 23.7418 0.282442Z" fill="url(#paint0_linear)"/>
<path opacity="0.3" d="M7.01307 2.70605L1 22.3237H16.5964L21.2941 12.5149L16.5964 2.70605H7.01307Z" stroke="#1E1E1E" stroke-width="0.5"/>
<defs>
<linearGradient id="paint0_linear" x1="20.3441" y1="-7.45443e-06" x2="0.389689" y2="0.887347" gradientUnits="userSpaceOnUse">
<stop stop-color="#ECD78D"/>
<stop offset="1" stop-color="#F2C48E"/>
</linearGradient>
</defs>
</svg>
