<svg width="110" height="106" viewBox="0 0 110 106" fill="none" xmlns="http://www.w3.org/2000/svg">
<path opacity="0.3" d="M32.9857 1L1 104.76H83.963L108.952 52.8798L83.963 1H32.9857Z" stroke="url(#paint0_linear)" stroke-width="0.5"/>
<path d="M58.6363 53.577C59.0411 51.8216 59.2586 50.0324 59.2586 48.2414C59.2586 39.9304 55.0268 32.3624 47.9376 27.9981C47.5054 27.7331 46.9443 27.8674 46.6803 28.2969C46.4153 28.7273 46.5496 29.2893 46.9791 29.5543C53.5237 33.5841 57.431 40.5692 57.431 48.2414C57.431 49.8186 57.2483 51.3949 56.9074 52.9447C56.4862 52.8569 56.0503 52.8103 55.6034 52.8103C52.0762 52.8103 49.2069 55.6806 49.2069 59.2069C49.2069 62.7332 52.0762 65.6034 55.6034 65.6034C59.1307 65.6034 62 62.7332 62 59.2069C62 56.7771 60.6375 54.6599 58.6363 53.577ZM55.6034 63.7759C53.0841 63.7759 51.0345 61.7262 51.0345 59.2069C51.0345 56.6876 53.0841 54.6379 55.6034 54.6379C58.1228 54.6379 60.1724 56.6876 60.1724 59.2069C60.1724 61.7262 58.1228 63.7759 55.6034 63.7759Z" fill="url(#paint1_linear)"/>
<path d="M43.8804 68.5111C41.2167 69.6132 38.3976 70.1724 35.5 70.1724C29.6654 70.1724 24.0529 67.8194 19.95 63.6918C21.0886 62.5358 21.7931 60.9532 21.7931 59.2069C21.7931 55.6806 18.9238 52.8103 15.3966 52.8103C11.8693 52.8103 9 55.6806 9 59.2069C9 62.7332 11.8693 65.6034 15.3966 65.6034C16.5169 65.6034 17.5696 65.3119 18.4861 64.8039C22.9445 69.3829 29.098 72 35.5 72C38.6389 72 41.6937 71.3942 44.5794 70.1989C45.0455 70.0061 45.2675 69.4715 45.0747 69.0046C44.8819 68.5395 44.3464 68.3183 43.8804 68.5111ZM10.8276 59.2069C10.8276 56.6876 12.8772 54.6379 15.3966 54.6379C17.9159 54.6379 19.9655 56.6876 19.9655 59.2069C19.9655 61.7262 17.9159 63.7759 15.3966 63.7759C12.8772 63.7759 10.8276 61.7262 10.8276 59.2069Z" fill="url(#paint2_linear)"/>
<path d="M12.6552 47.5222C12.6771 47.524 12.699 47.525 12.7201 47.525C13.1961 47.525 13.5964 47.1576 13.6311 46.6751C14.2817 37.4559 20.5631 29.7517 29.3666 27.1986C30.147 29.8504 32.5987 31.7931 35.5 31.7931C39.0272 31.7931 41.8966 28.9229 41.8966 25.3966C41.8966 21.8702 39.0272 19 35.5 19C31.981 19 29.1172 21.8574 29.1044 25.3737C19.4355 28.0667 12.519 36.4717 11.8081 46.5472C11.7724 47.0498 12.1517 47.4875 12.6552 47.5222ZM35.5 20.8276C38.0193 20.8276 40.069 22.8772 40.069 25.3966C40.069 27.9159 38.0193 29.9655 35.5 29.9655C32.9807 29.9655 30.931 27.9159 30.931 25.3966C30.931 22.8772 32.9807 20.8276 35.5 20.8276Z" fill="url(#paint3_linear)"/>
<defs>
<linearGradient id="paint0_linear" x1="91.7929" y1="0.999956" x2="-1.93242" y2="4.31593" gradientUnits="userSpaceOnUse">
<stop stop-color="#FFF9C6"/>
<stop offset="1" stop-color="#FFD8AB"/>
</linearGradient>
<linearGradient id="paint1_linear" x1="53.5756" y1="19" x2="7.55592" y2="20.5649" gradientUnits="userSpaceOnUse">
<stop stop-color="#FFF9C6"/>
<stop offset="1" stop-color="#FFD8AB"/>
</linearGradient>
<linearGradient id="paint2_linear" x1="53.5756" y1="19" x2="7.55592" y2="20.5649" gradientUnits="userSpaceOnUse">
<stop stop-color="#FFF9C6"/>
<stop offset="1" stop-color="#FFD8AB"/>
</linearGradient>
<linearGradient id="paint3_linear" x1="53.5756" y1="19" x2="7.55592" y2="20.5649" gradientUnits="userSpaceOnUse">
<stop stop-color="#FFF9C6"/>
<stop offset="1" stop-color="#FFD8AB"/>
</linearGradient>
</defs>
</svg>
