<svg width="110" height="106" viewBox="0 0 110 106" fill="none" xmlns="http://www.w3.org/2000/svg">
<path opacity="0.3" d="M32.9857 1L1 104.76H83.963L108.952 52.8798L83.963 1H32.9857Z" stroke="url(#paint0_linear)" stroke-width="0.5"/>
<path d="M61.2551 43.4547L57.4731 40.2401C57.1404 39.9572 56.641 39.9974 56.3577 40.3296C56.0744 40.6619 56.1145 41.1605 56.4474 41.4434L59.6755 44.1873H47.0999L52.1008 37.7489L53.8687 39.2516C54.2015 39.5346 54.701 39.4945 54.9841 39.1622C55.2673 38.8299 55.2273 38.3312 54.8944 38.0484L52.4959 36.0095C52.1133 35.6844 51.626 35.5052 51.1236 35.5052H50.5037C50.5517 35.3278 50.5795 35.1423 50.5795 34.9499V33.4952C50.5795 32.7104 50.1521 32.0251 49.5189 31.6538L53.0787 23.4614C53.2578 23.0492 53.2173 22.5789 52.9705 22.2033C52.7236 21.8277 52.3076 21.6034 51.8577 21.6034H49.5343C49.3077 21.6034 49.0834 21.6617 48.8855 21.7721L46.5915 23.0511C46.21 23.2638 46.0734 23.7451 46.2863 24.1262C46.4995 24.5072 46.9815 24.6436 47.3629 24.4308L49.5997 23.1837H51.4745L47.9218 31.3597H23.0781L19.5254 23.1837H21.4002L28.7257 27.2678C29.0924 27.4728 29.5616 27.394 29.8416 27.0796L35.5001 20.7117L41.1591 27.0802C41.4385 27.3939 41.9075 27.4729 42.2735 27.2682L44.3831 26.092C44.7646 25.8793 44.9012 25.398 44.6883 25.017C44.4752 24.6359 43.9933 24.4996 43.6117 24.7123L41.9794 25.6223L36.4893 19.4441C36.2386 19.1619 35.878 19 35.5001 19C35.1221 19 34.7615 19.1619 34.5106 19.4442L29.0207 25.6224L22.1145 21.7721C21.9166 21.6618 21.6923 21.6035 21.4657 21.6035H19.1422C18.6923 21.6035 18.2763 21.8278 18.0294 22.2034C17.7825 22.579 17.742 23.0494 17.9213 23.4616L21.481 31.6539C20.8478 32.0251 20.4204 32.7104 20.4204 33.4953V34.95C20.4204 35.1424 20.4483 35.3279 20.4962 35.5053H19.8763C19.3739 35.5053 18.8866 35.6844 18.504 36.0096L9.74494 43.4546C9.29909 43.8336 9.02838 44.3858 9.00211 44.9697C8.97584 45.5537 9.19591 46.1278 9.60579 46.545L33.9885 71.3663C34.39 71.7749 34.9268 72 35.4999 72C36.0731 72 36.6099 71.775 37.0115 71.3663L61.3941 46.5451C61.8041 46.1279 62.0242 45.5537 61.9979 44.9697C61.9716 44.3858 61.7008 43.8336 61.2551 43.4547ZM38.5837 37.0854L43.9047 44.1872H27.0953L32.4163 37.0854H38.5837ZM40.5602 37.0854H50.6134L45.4962 43.6736L40.5602 37.0854ZM25.5039 43.6736L20.3867 37.0855H30.4399L25.5039 43.6736ZM23.9001 44.1872H11.3245L18.8992 37.7488L23.9001 44.1872ZM24.9709 45.7674L26.8257 50.6011C26.9465 50.9156 27.2464 51.1088 27.5648 51.1087C27.6589 51.1087 27.7546 51.0919 27.8477 51.0561C28.2558 50.9 28.4599 50.4431 28.3035 50.0356L26.6656 45.7673H44.3343L35.4999 68.7906L29.5128 53.1871C29.3564 52.7796 28.8993 52.5757 28.4907 52.732C28.0826 52.8881 27.8786 53.345 28.0349 53.7525L33.8884 69.0079L11.0587 45.7674H24.9709ZM46.029 45.7674H59.9412L37.1115 69.0079L46.029 45.7674ZM22.0029 34.9499V33.4952C22.0029 33.1889 22.2523 32.9399 22.559 32.9399H48.4411C48.7477 32.9399 48.9972 33.189 48.9972 33.4952V34.9499C48.9972 35.256 48.7478 35.5052 48.4411 35.5052H22.5589C22.2523 35.5052 22.0029 35.2561 22.0029 34.9499Z" fill="url(#paint1_linear)"/>
<path d="M34.9749 25.2029C33.7843 25.2029 32.8157 26.1701 32.8157 27.3589V27.6721C32.8157 28.861 33.7843 29.8282 34.9749 29.8282H36.0251C37.2157 29.8282 38.1843 28.861 38.1843 27.6721V27.3589C38.1843 26.1701 37.2157 25.2029 36.0251 25.2029H34.9749ZM36.6018 27.3589V27.6721C36.6018 27.9896 36.3431 28.248 36.0251 28.248H34.9749C34.6569 28.248 34.3982 27.9896 34.3982 27.6721V27.3589C34.3982 27.0414 34.6569 26.7831 34.9749 26.7831H36.0251C36.3431 26.7831 36.6018 27.0414 36.6018 27.3589Z" fill="url(#paint2_linear)"/>
<path d="M41.2362 28.549H40.8423C40.4052 28.549 40.051 28.9028 40.051 29.3391C40.051 29.7755 40.4052 30.1292 40.8423 30.1292H41.2362C41.6733 30.1292 42.0275 29.7755 42.0275 29.3391C42.0275 28.9028 41.6732 28.549 41.2362 28.549Z" fill="url(#paint3_linear)"/>
<path d="M45.7174 30.1292H46.1113C46.5484 30.1292 46.9026 29.7755 46.9026 29.3391C46.9026 28.9028 46.5484 28.549 46.1113 28.549H45.7174C45.2803 28.549 44.9261 28.9028 44.9261 29.3391C44.9261 29.7755 45.2804 30.1292 45.7174 30.1292Z" fill="url(#paint4_linear)"/>
<path d="M29.7638 28.549C29.3267 28.549 28.9725 28.9028 28.9725 29.3391C28.9725 29.7755 29.3267 30.1292 29.7638 30.1292H30.1577C30.5948 30.1292 30.949 29.7755 30.949 29.3391C30.949 28.9028 30.5948 28.549 30.1577 28.549H29.7638Z" fill="url(#paint5_linear)"/>
<path d="M24.8886 28.549C24.4515 28.549 24.0973 28.9028 24.0973 29.3391C24.0973 29.7755 24.4515 30.1292 24.8886 30.1292H25.2825C25.7196 30.1292 26.0738 29.7755 26.0738 29.3391C26.0738 28.9028 25.7196 28.549 25.2825 28.549H24.8886Z" fill="url(#paint6_linear)"/>
<defs>
<linearGradient id="paint0_linear" x1="91.7929" y1="0.999956" x2="-1.93242" y2="4.31593" gradientUnits="userSpaceOnUse">
<stop stop-color="#FFF9C6"/>
<stop offset="1" stop-color="#FFD8AB"/>
</linearGradient>
<linearGradient id="paint1_linear" x1="53.5756" y1="19" x2="7.55592" y2="20.5649" gradientUnits="userSpaceOnUse">
<stop stop-color="#FFF9C6"/>
<stop offset="1" stop-color="#FFD8AB"/>
</linearGradient>
<linearGradient id="paint2_linear" x1="53.5756" y1="19" x2="7.55592" y2="20.5649" gradientUnits="userSpaceOnUse">
<stop stop-color="#FFF9C6"/>
<stop offset="1" stop-color="#FFD8AB"/>
</linearGradient>
<linearGradient id="paint3_linear" x1="53.5756" y1="19" x2="7.55592" y2="20.5649" gradientUnits="userSpaceOnUse">
<stop stop-color="#FFF9C6"/>
<stop offset="1" stop-color="#FFD8AB"/>
</linearGradient>
<linearGradient id="paint4_linear" x1="53.5756" y1="19" x2="7.55592" y2="20.5649" gradientUnits="userSpaceOnUse">
<stop stop-color="#FFF9C6"/>
<stop offset="1" stop-color="#FFD8AB"/>
</linearGradient>
<linearGradient id="paint5_linear" x1="53.5756" y1="19" x2="7.55592" y2="20.5649" gradientUnits="userSpaceOnUse">
<stop stop-color="#FFF9C6"/>
<stop offset="1" stop-color="#FFD8AB"/>
</linearGradient>
<linearGradient id="paint6_linear" x1="53.5756" y1="19" x2="7.55592" y2="20.5649" gradientUnits="userSpaceOnUse">
<stop stop-color="#FFF9C6"/>
<stop offset="1" stop-color="#FFD8AB"/>
</linearGradient>
</defs>
</svg>
