<svg width="110" height="106" viewBox="0 0 110 106" fill="none" xmlns="http://www.w3.org/2000/svg">
<path opacity="0.3" d="M32.9857 1L1 104.76H83.963L108.952 52.8798L83.963 1H32.9857Z" stroke="url(#paint0_linear)" stroke-width="0.5"/>
<path d="M41.318 62.3739H41.1732C37.8698 62.2591 33.3858 61.5676 30.7894 58.9231C30.6437 58.7695 30.5631 58.5637 30.5649 58.3502C30.5667 58.1366 30.6509 57.9324 30.7992 57.7813C30.9475 57.6303 31.1481 57.5447 31.3578 57.5428C31.5675 57.541 31.7696 57.6231 31.9204 57.7714C34.2664 60.1602 38.7584 60.6603 41.2284 60.7458C41.8781 60.7751 42.5159 60.5611 43.0212 60.1442C43.5265 59.7274 43.8644 59.1365 43.9711 58.4833C44.2383 56.9741 43.2328 55.6538 41.4692 55.1969L37.1339 54.0746C35.8895 53.7472 34.6997 53.2337 33.6033 52.5508C32.6699 51.9749 31.5037 51.3095 30.1359 50.5716C24.9696 47.7854 19.8929 48.4956 15.4569 52.6273C15.3794 52.6995 15.2887 52.7555 15.1899 52.7919C15.0912 52.8284 14.9863 52.8448 14.8814 52.84C14.7764 52.8352 14.6734 52.8095 14.5783 52.7642C14.4831 52.7189 14.3976 52.6549 14.3267 52.576C14.2558 52.4971 14.2009 52.4047 14.165 52.3041C14.1292 52.2036 14.1132 52.0968 14.1178 51.99C14.1225 51.8831 14.1478 51.7782 14.1923 51.6813C14.2368 51.5844 14.2996 51.4974 14.3771 51.4252C19.357 46.7868 25.0656 45.9936 30.8846 49.1317C32.2796 49.8842 33.473 50.5651 34.432 51.1572C35.3935 51.7566 36.4369 52.2076 37.5282 52.4954L41.8627 53.6177C44.4502 54.2872 45.9644 56.4064 45.542 58.7716C45.3601 59.7789 44.8385 60.69 44.0674 61.3476C43.2962 62.0053 42.3238 62.3683 41.318 62.3739Z" fill="url(#paint1_linear)"/>
<path d="M36.5468 71.5358C34.3299 71.5338 32.1597 70.8866 30.2919 69.6707L24.7873 66.1041C24.4492 65.8856 24.0649 65.7522 23.6661 65.715C23.2673 65.6777 22.8656 65.7377 22.4941 65.8899L15.2154 68.8839C15.0197 68.9596 14.8027 68.9543 14.6109 68.869C14.4191 68.7837 14.2678 68.6253 14.1894 68.4277C14.111 68.2301 14.1118 68.0091 14.1916 67.8121C14.2714 67.6151 14.4239 67.4577 14.6163 67.3739L21.895 64.3799C22.5026 64.1306 23.1599 64.0323 23.8122 64.0932C24.4646 64.1541 25.0934 64.3725 25.6463 64.7302L31.151 68.2975C32.8394 69.3993 34.8142 69.9586 36.8188 69.9029C38.8235 69.8471 40.7654 69.1788 42.3922 67.9847L60.2547 54.9624C60.5751 54.7281 60.8416 54.4256 61.0358 54.0759C61.23 53.7262 61.3471 53.3377 61.379 52.9374C61.411 52.537 61.357 52.1343 61.2209 51.7573C61.0847 51.3803 60.8697 51.038 60.5906 50.7541C60.1685 50.3138 59.6128 50.0315 59.0136 49.953C58.4143 49.8745 57.8065 50.0044 57.2888 50.3216L45.3549 58.322C45.1776 58.4408 44.9613 58.4831 44.7535 58.4394C44.5456 58.3958 44.3633 58.27 44.2467 58.0895C44.13 57.909 44.0885 57.6887 44.1313 57.4771C44.1742 57.2655 44.2978 57.0798 44.475 56.961L56.4121 48.9614C57.3661 48.3619 58.5117 48.1635 59.6067 48.4082C60.7017 48.6529 61.6603 49.3215 62.28 50.2728C62.8998 51.224 63.132 52.3834 62.9276 53.5058C62.7232 54.6282 62.0983 55.6257 61.1849 56.2875L43.324 69.3082C41.3495 70.7544 38.9791 71.5335 36.5468 71.5358Z" fill="url(#paint2_linear)"/>
<path d="M41.6659 55.2205C41.4937 55.2206 41.3261 55.1641 41.188 55.0594C41.0499 54.9547 40.9487 54.8074 40.8994 54.6394C40.85 54.4715 40.8553 54.2918 40.9143 54.127C40.9732 53.9623 41.0829 53.8214 41.2268 53.7252L49.1358 48.4532C50.3343 47.6475 51.7766 47.3059 53.2013 47.4903C54.6259 47.6747 55.9384 48.3729 56.9008 49.4583C57.04 49.6186 57.1116 49.8282 57.1002 50.0419C57.0888 50.2555 56.9953 50.456 56.8399 50.6C56.6845 50.744 56.4797 50.82 56.2697 50.8115C56.0598 50.8029 55.8615 50.7107 55.7179 50.5545C55.0106 49.7573 54.0462 49.2445 52.9995 49.109C51.9529 48.9735 50.8932 49.2242 50.0125 49.8158L42.1034 55.0878C41.9735 55.1747 41.8214 55.2208 41.6659 55.2205Z" fill="url(#paint3_linear)"/>
<path d="M36.714 53.9158C36.5433 53.9159 36.377 53.8603 36.2395 53.7573C36.102 53.6542 36.0005 53.5091 35.9499 53.3431C35.8992 53.1771 35.902 52.999 35.9579 52.8347C36.0138 52.6704 36.1198 52.5287 36.2605 52.4302L43.204 47.5695C44.3123 46.8019 45.6536 46.4629 46.9857 46.6139C48.3178 46.7649 49.5531 47.3959 50.4684 48.393C50.5415 48.4711 50.5985 48.5633 50.6363 48.6642C50.6741 48.765 50.6918 48.8725 50.6885 48.9804C50.6851 49.0882 50.6607 49.1944 50.6167 49.2926C50.5727 49.3908 50.51 49.4791 50.4322 49.5524C50.3544 49.6257 50.263 49.6825 50.1635 49.7195C50.0639 49.7565 49.9581 49.7731 49.8522 49.7681C49.7463 49.7631 49.6425 49.7368 49.5467 49.6906C49.4509 49.6444 49.365 49.5793 49.2942 49.499C48.641 48.7875 47.7595 48.3372 46.8088 48.2296C45.8582 48.1219 44.9011 48.3638 44.1103 48.9118L37.1659 53.7733C37.0328 53.8661 36.8753 53.9158 36.714 53.9158Z" fill="url(#paint4_linear)"/>
<path d="M10.8977 72H7.79986C7.58772 72 7.38428 71.9142 7.23427 71.7615C7.08427 71.6087 7 71.4016 7 71.1855V48.6381C7 48.4221 7.08427 48.2149 7.23427 48.0622C7.38428 47.9095 7.58772 47.8236 7.79986 47.8236H10.8977C12.1757 47.8245 13.4012 48.3417 14.305 49.2618C15.2088 50.1818 15.7172 51.4294 15.7185 52.7308V67.0929C15.7172 68.3942 15.2088 69.6419 14.305 70.5619C13.4012 71.4819 12.1757 71.9991 10.8977 72ZM8.59972 70.3711H10.8977C11.7516 70.3707 12.5704 70.0252 13.1743 69.4105C13.7782 68.7959 14.1179 67.9623 14.1188 67.0929V52.7308C14.1177 51.8617 13.7781 51.0286 13.1746 50.4142C12.571 49.7998 11.7528 49.4542 10.8993 49.4534H8.59972V70.3711Z" fill="url(#paint5_linear)"/>
<path d="M29.7528 44.8167C29.5589 44.8166 29.3715 44.7449 29.2257 44.6147C28.7626 44.2018 17.8845 34.4209 17.4078 27.2765C17.3329 26.2076 17.4767 25.1345 17.8302 24.1251C18.1836 23.1157 18.7389 22.192 19.461 21.4124C20.1385 20.6624 20.9595 20.0615 21.8736 19.6466C22.7876 19.2317 23.7754 19.0117 24.7761 19C25.7053 19.0069 26.6238 19.202 27.4783 19.574C28.3327 19.9459 29.1059 20.4873 29.7528 21.1665C30.3997 20.4873 31.1729 19.9459 32.0274 19.574C32.8818 19.202 33.8003 19.0069 34.7295 19C35.7302 19.0117 36.718 19.2317 37.632 19.6466C38.5461 20.0615 39.3671 20.6624 40.0446 21.4124C40.7667 22.192 41.322 23.1157 41.6754 24.1251C42.0289 25.1345 42.1727 26.2076 42.0978 27.2765C41.6179 34.4209 30.7398 44.2018 30.2799 44.6147C30.1341 44.7449 29.9467 44.8166 29.7528 44.8167ZM24.7761 20.6273C23.9946 20.6384 23.2236 20.8122 22.5105 21.138C21.7974 21.4637 21.1573 21.9347 20.6296 22.5217C20.0578 23.1388 19.6181 23.8701 19.3382 24.6692C19.0583 25.4683 18.9443 26.3179 19.0035 27.1641C19.3802 32.8091 27.574 40.8552 29.7528 42.9003C31.9308 40.8543 40.1254 32.801 40.5021 27.1633C40.5613 26.317 40.4473 25.4675 40.1674 24.6684C39.8875 23.8693 39.4477 23.138 38.876 22.5209C38.3484 21.9336 37.7083 21.4625 36.9953 21.1364C36.2822 20.8103 35.5111 20.6362 34.7295 20.6248C33.8829 20.6383 33.0507 20.85 32.2973 21.2435C31.5438 21.637 30.8894 22.2017 30.3847 22.8939C30.307 22.9874 30.2102 23.0625 30.1011 23.1141C29.9919 23.1656 29.8731 23.1923 29.7528 23.1923C29.6325 23.1923 29.5137 23.1656 29.4046 23.1141C29.2954 23.0625 29.1986 22.9874 29.1209 22.8939C28.6161 22.2018 27.9617 21.6373 27.2082 21.2439C26.4548 20.8506 25.6226 20.6391 24.7761 20.6257V20.6273Z" fill="url(#paint6_linear)"/>
<path d="M38.5081 47.0955C38.3141 47.0955 38.1268 47.0237 37.981 46.8935C36.0403 45.118 34.2229 43.2076 32.5419 41.176C32.4723 41.0944 32.4193 40.9994 32.3861 40.8966C32.3529 40.7939 32.3402 40.6854 32.3486 40.5776C32.357 40.4697 32.3864 40.3647 32.4351 40.2686C32.4839 40.1725 32.5509 40.0872 32.6323 40.0177C32.7138 39.9483 32.808 39.896 32.9095 39.864C33.0109 39.8321 33.1177 39.821 33.2234 39.8315C33.3291 39.842 33.4317 39.8738 33.5253 39.9251C33.6188 39.9764 33.7013 40.0461 33.7681 40.1303C35.2472 41.9098 36.8312 43.5961 38.5113 45.1799C40.5029 43.3026 47.4697 36.4074 47.7896 31.5834C47.84 30.8583 47.742 30.1304 47.5019 29.4459C47.2618 28.7613 46.8848 28.1349 46.3947 27.6064C45.7828 26.9226 44.9933 26.4292 44.1176 26.1833C43.2418 25.9374 42.3155 25.949 41.446 26.2169C41.3462 26.2508 41.2408 26.2644 41.1359 26.2568C41.0309 26.2493 40.9285 26.2207 40.8344 26.1728C40.7403 26.125 40.6564 26.0587 40.5874 25.9778C40.5185 25.8969 40.4658 25.803 40.4325 25.7014C40.3992 25.5997 40.3859 25.4925 40.3933 25.3856C40.4008 25.2788 40.4288 25.1744 40.4758 25.0786C40.5228 24.9828 40.5879 24.8973 40.6674 24.8271C40.7468 24.7569 40.8391 24.7033 40.9388 24.6694C42.0992 24.3056 43.3369 24.2835 44.509 24.6057C45.6811 24.928 46.7397 25.5815 47.5625 26.4906C48.203 27.1817 48.6957 28.0006 49.0094 28.8956C49.323 29.7906 49.4508 30.7422 49.3846 31.6901C48.967 37.9614 39.4391 46.5278 39.0344 46.8895C38.8893 47.0209 38.7023 47.0942 38.5081 47.0955Z" fill="url(#paint7_linear)"/>
<defs>
<linearGradient id="paint0_linear" x1="91.7929" y1="0.999956" x2="-1.93242" y2="4.31593" gradientUnits="userSpaceOnUse">
<stop stop-color="#FFF9C6"/>
<stop offset="1" stop-color="#FFD8AB"/>
</linearGradient>
<linearGradient id="paint1_linear" x1="54.0988" y1="19" x2="5.48072" y2="20.7469" gradientUnits="userSpaceOnUse">
<stop stop-color="#FFF9C6"/>
<stop offset="1" stop-color="#FFD8AB"/>
</linearGradient>
<linearGradient id="paint2_linear" x1="54.0988" y1="19" x2="5.48072" y2="20.7469" gradientUnits="userSpaceOnUse">
<stop stop-color="#FFF9C6"/>
<stop offset="1" stop-color="#FFD8AB"/>
</linearGradient>
<linearGradient id="paint3_linear" x1="54.0988" y1="19" x2="5.48072" y2="20.7469" gradientUnits="userSpaceOnUse">
<stop stop-color="#FFF9C6"/>
<stop offset="1" stop-color="#FFD8AB"/>
</linearGradient>
<linearGradient id="paint4_linear" x1="54.0988" y1="19" x2="5.48072" y2="20.7469" gradientUnits="userSpaceOnUse">
<stop stop-color="#FFF9C6"/>
<stop offset="1" stop-color="#FFD8AB"/>
</linearGradient>
<linearGradient id="paint5_linear" x1="54.0988" y1="19" x2="5.48072" y2="20.7469" gradientUnits="userSpaceOnUse">
<stop stop-color="#FFF9C6"/>
<stop offset="1" stop-color="#FFD8AB"/>
</linearGradient>
<linearGradient id="paint6_linear" x1="54.0988" y1="19" x2="5.48072" y2="20.7469" gradientUnits="userSpaceOnUse">
<stop stop-color="#FFF9C6"/>
<stop offset="1" stop-color="#FFD8AB"/>
</linearGradient>
<linearGradient id="paint7_linear" x1="54.0988" y1="19" x2="5.48072" y2="20.7469" gradientUnits="userSpaceOnUse">
<stop stop-color="#FFF9C6"/>
<stop offset="1" stop-color="#FFD8AB"/>
</linearGradient>
</defs>
</svg>
