<svg width="32" height="32" viewBox="0 0 32 32" fill="none" xmlns="http://www.w3.org/2000/svg">
<path d="M26.6055 1H5.39453C2.97168 1 1 2.97168 1 5.39453V26.6055C1 29.0289 2.97168 31 5.39453 31H26.6055C29.0289 31 31 29.0289 31 26.6055V5.39453C31 2.97168 29.0289 1 26.6055 1ZM29.2422 26.6055C29.2422 28.0592 28.0592 29.2422 26.6055 29.2422H5.39453C3.94082 29.2422 2.75781 28.0592 2.75781 26.6055V5.39453C2.75781 3.94082 3.94082 2.75781 5.39453 2.75781H26.6055C28.0592 2.75781 29.2422 3.94082 29.2422 5.39453V26.6055Z" fill="url(#paint0_linear)"/>
<path d="M25.668 4.57422C24.6988 4.57422 23.9102 5.36289 23.9102 6.33203C23.9102 7.30117 24.6988 8.08984 25.668 8.08984C26.6371 8.08984 27.4258 7.30117 27.4258 6.33203C27.4258 5.36289 26.6371 4.57422 25.668 4.57422Z" fill="url(#paint1_linear)"/>
<path d="M16 8.08984C11.6383 8.08984 8.08984 11.6383 8.08984 16C8.08984 20.3617 11.6383 23.9102 16 23.9102C20.3617 23.9102 23.9102 20.3617 23.9102 16C23.9102 11.6383 20.3617 8.08984 16 8.08984ZM16 22.1523C12.6074 22.1523 9.84766 19.3926 9.84766 16C9.84766 12.6074 12.6074 9.84766 16 9.84766C19.3926 9.84766 22.1523 12.6074 22.1523 16C22.1523 19.3926 19.3926 22.1523 16 22.1523Z" fill="url(#paint2_linear)"/>
<path d="M26.6055 1H5.39453C2.97168 1 1 2.97168 1 5.39453V26.6055C1 29.0289 2.97168 31 5.39453 31H26.6055C29.0289 31 31 29.0289 31 26.6055V5.39453C31 2.97168 29.0289 1 26.6055 1ZM29.2422 26.6055C29.2422 28.0592 28.0592 29.2422 26.6055 29.2422H5.39453C3.94082 29.2422 2.75781 28.0592 2.75781 26.6055V5.39453C2.75781 3.94082 3.94082 2.75781 5.39453 2.75781H26.6055C28.0592 2.75781 29.2422 3.94082 29.2422 5.39453V26.6055Z" stroke="#0C0C0C" stroke-width="0.7"/>
<path d="M25.668 4.57422C24.6988 4.57422 23.9102 5.36289 23.9102 6.33203C23.9102 7.30117 24.6988 8.08984 25.668 8.08984C26.6371 8.08984 27.4258 7.30117 27.4258 6.33203C27.4258 5.36289 26.6371 4.57422 25.668 4.57422Z" stroke="#0C0C0C" stroke-width="0.7"/>
<path d="M16 8.08984C11.6383 8.08984 8.08984 11.6383 8.08984 16C8.08984 20.3617 11.6383 23.9102 16 23.9102C20.3617 23.9102 23.9102 20.3617 23.9102 16C23.9102 11.6383 20.3617 8.08984 16 8.08984ZM16 22.1523C12.6074 22.1523 9.84766 19.3926 9.84766 16C9.84766 12.6074 12.6074 9.84766 16 9.84766C19.3926 9.84766 22.1523 12.6074 22.1523 16C22.1523 19.3926 19.3926 22.1523 16 22.1523Z" stroke="#0C0C0C" stroke-width="0.7"/>
<defs>
<linearGradient id="paint0_linear" x1="26.2315" y1="0.999987" x2="0.182596" y2="1.8858" gradientUnits="userSpaceOnUse">
<stop stop-color="#FFF9C6"/>
<stop offset="1" stop-color="#FFD8AB"/>
</linearGradient>
<linearGradient id="paint1_linear" x1="26.2315" y1="0.999987" x2="0.182596" y2="1.8858" gradientUnits="userSpaceOnUse">
<stop stop-color="#FFF9C6"/>
<stop offset="1" stop-color="#FFD8AB"/>
</linearGradient>
<linearGradient id="paint2_linear" x1="26.2315" y1="0.999987" x2="0.182596" y2="1.8858" gradientUnits="userSpaceOnUse">
<stop stop-color="#FFF9C6"/>
<stop offset="1" stop-color="#FFD8AB"/>
</linearGradient>
</defs>
</svg>
