<svg width="15" height="20" viewBox="0 0 15 20" fill="none" xmlns="http://www.w3.org/2000/svg">
<path d="M7.49996 3.03297C5.0612 3.03297 3.07704 4.98853 3.07704 7.39223C3.07704 9.79594 5.0612 11.7515 7.49996 11.7515C9.93872 11.7515 11.9229 9.79594 11.9229 7.39223C11.9229 4.98853 9.93872 3.03297 7.49996 3.03297ZM7.49996 10.5789C5.71717 10.5789 4.26668 9.14932 4.26668 7.39216C4.26668 5.63499 5.71717 4.20551 7.49996 4.20551C9.28275 4.20551 10.7332 5.63507 10.7332 7.39223C10.7332 9.1494 9.28283 10.5789 7.49996 10.5789Z" fill="url(#paint0_linear)"/>
<path d="M7.49996 0C3.36446 0 0 3.3161 0 7.39216C0 9.74286 2.00018 13.2451 3.19244 15.1234C3.97688 16.3592 4.81986 17.5353 5.566 18.4351C6.76365 19.8792 7.19232 20 7.50004 20C7.81236 20 8.21708 19.8791 9.411 18.4342C10.1588 17.5291 11.0022 16.3536 11.7858 15.1243C12.9863 13.2414 15 9.73293 15 7.39208C15 3.3161 11.6355 0 7.49996 0ZM10.9611 14.2114C9.42281 16.6724 8.01055 18.3354 7.4929 18.7599C6.97255 18.3484 5.58321 16.725 4.02344 14.2191C2.22256 11.3257 1.18972 8.83735 1.18972 7.39216C1.18964 3.96264 4.02042 1.17254 7.49996 1.17254C10.9795 1.17254 13.8103 3.96264 13.8103 7.39216C13.8104 8.82906 12.7718 11.3145 10.9611 14.2114Z" fill="url(#paint1_linear)"/>
<defs>
<linearGradient id="paint0_linear" x1="12.6157" y1="-8.47661e-06" x2="-0.415287" y2="0.332338" gradientUnits="userSpaceOnUse">
<stop stop-color="#FFF9C6"/>
<stop offset="1" stop-color="#FFD8AB"/>
</linearGradient>
<linearGradient id="paint1_linear" x1="12.6157" y1="-8.47661e-06" x2="-0.415287" y2="0.332338" gradientUnits="userSpaceOnUse">
<stop stop-color="#FFF9C6"/>
<stop offset="1" stop-color="#FFD8AB"/>
</linearGradient>
</defs>
</svg>
