<svg width="21" height="38" viewBox="0 0 21 38" fill="none" xmlns="http://www.w3.org/2000/svg">
<path d="M16.3323 1.15859H4.58225C7.20725 1.15859 5.20725 2.60149 7.41451 2.60149H13.5C15.7073 2.60149 14.2073 1.15859 16.3323 1.15859Z" fill="url(#paint0_linear)"/>
<path d="M19.0424 0H1.95764C0.878162 0 0 0.956752 0 2.13267V35.8673C0 37.0432 0.878162 38 1.95764 38H19.0424C20.1218 38 21 37.0432 21 35.8673V2.13267C20.9999 0.956752 20.1218 0 19.0424 0ZM19.9322 35.8673C19.9322 36.4018 19.533 36.8366 19.0424 36.8366H1.95764C1.46699 36.8366 1.06783 36.4018 1.06783 35.8673V33.5407H19.9322V35.8673ZM19.9322 33.5407H1.06783V5.62243H19.9322V33.5407ZM19.9322 5.62243H1.06783V2.13267C1.06783 1.59815 1.46699 1.1633 1.95764 1.1633H19.0424C19.5331 1.1633 19.9322 1.59815 19.9322 2.13267V5.62243Z" fill="url(#paint1_linear)"/>
<path d="M14.8602 35.15H6.79243C6.30096 35.15 5.90262 35.1365 5.90262 35.672C5.90262 36.2073 6.30096 36.158 6.79243 36.158H14.8602C15.3517 36.158 15.75 36.2073 15.75 35.672C15.75 35.1365 15.3517 35.15 14.8602 35.15Z" fill="url(#paint2_linear)"/>
<defs>
<linearGradient id="paint0_linear" x1="17.662" y1="-1.61056e-05" x2="-0.586824" y2="0.342928" gradientUnits="userSpaceOnUse">
<stop stop-color="#FFF9C6"/>
<stop offset="1" stop-color="#FFD8AB"/>
</linearGradient>
<linearGradient id="paint1_linear" x1="17.662" y1="-1.61056e-05" x2="-0.586824" y2="0.342928" gradientUnits="userSpaceOnUse">
<stop stop-color="#FFF9C6"/>
<stop offset="1" stop-color="#FFD8AB"/>
</linearGradient>
<linearGradient id="paint2_linear" x1="17.662" y1="-1.61056e-05" x2="-0.586824" y2="0.342928" gradientUnits="userSpaceOnUse">
<stop stop-color="#FFF9C6"/>
<stop offset="1" stop-color="#FFD8AB"/>
</linearGradient>
</defs>
</svg>
