<svg width="110" height="106" viewBox="0 0 110 106" fill="none" xmlns="http://www.w3.org/2000/svg">
<path opacity="0.3" d="M33.0338 1L1.0481 104.76H84.0111L109 52.8798L84.0111 1H33.0338Z" stroke="url(#paint0_linear)" stroke-width="0.5"/>
<path d="M46.6667 39.3333C46.6667 39.1123 46.5789 38.9004 46.4226 38.7441C46.2663 38.5878 46.0543 38.5 45.8333 38.5H31.6667V25.1667C31.6667 24.9457 31.5789 24.7337 31.4226 24.5774C31.2663 24.4211 31.0543 24.3333 30.8333 24.3333C29.9955 24.3378 29.1594 24.4103 28.3333 24.55V21.8333C28.3333 21.6123 28.2455 21.4004 28.0893 21.2441C27.933 21.0878 27.721 21 27.5 21H7.5C7.27907 21.0016 7.06724 21.0882 6.90833 21.2417L0.241667 27.9083C0.0881702 28.0672 0.00164524 28.2791 0 28.5V70.1667C0 70.3877 0.0877973 70.5996 0.244078 70.7559C0.400358 70.9122 0.61232 71 0.833333 71H27.5C27.721 71 27.933 70.9122 28.0893 70.7559C28.2455 70.5996 28.3333 70.3877 28.3333 70.1667V55.7833C29.1594 55.923 29.9955 55.9955 30.8333 56C35.0314 55.9963 39.0565 54.3269 42.025 51.3584C44.9936 48.3899 46.6629 44.3648 46.6667 40.1667C46.6667 39.9417 46.6583 39.7167 46.65 39.4917C46.6601 39.4395 46.6657 39.3865 46.6667 39.3333ZM30 26.025V38.9917L19.8667 49.125C18.2141 47.1048 17.1522 44.6672 16.798 42.0814C16.4438 39.4955 16.8113 36.8621 17.8598 34.472C18.9082 32.0819 20.5969 30.0281 22.7393 28.5374C24.8817 27.0468 27.3945 26.1773 30 26.025ZM6.66667 23.8417V27.6667H2.84167L6.66667 23.8417ZM26.6667 69.3333H1.66667V29.3333H7.5C7.72101 29.3333 7.93297 29.2455 8.08926 29.0893C8.24554 28.933 8.33333 28.721 8.33333 28.5V22.6667H26.6667V24.9083C23.3165 25.818 20.3589 27.805 18.2502 30.5626C16.1415 33.3202 14.999 36.6952 14.999 40.1667C14.999 43.6381 16.1415 47.0131 18.2502 49.7707C20.3589 52.5283 23.3165 54.5153 26.6667 55.425V69.3333ZM30.8333 54.3333C27.1609 54.3335 23.6332 52.9015 21 50.3417L31.175 40.1667H45C44.9947 43.9223 43.5005 47.5225 40.8448 50.1782C38.1892 52.8338 34.5889 54.328 30.8333 54.3333Z" fill="url(#paint1_linear)"/>
<path d="M34.1667 36.8333H49.1667V36.8283C49.2776 36.8258 49.3869 36.801 49.4881 36.7554C49.5892 36.7098 49.6802 36.6443 49.7555 36.5628C49.8309 36.4814 49.889 36.3856 49.9266 36.2811C49.9642 36.1767 49.9803 36.0658 49.9742 35.955C49.753 31.9131 47.9908 28.1097 45.0503 25.3278C42.1098 22.5458 38.2146 20.9969 34.1667 21C33.9457 21 33.7337 21.0878 33.5774 21.2441C33.4211 21.4004 33.3333 21.6123 33.3333 21.8333V36C33.3333 36.221 33.4211 36.433 33.5774 36.5893C33.7337 36.7455 33.9457 36.8333 34.1667 36.8333ZM48.235 35.1667H35V22.6908C38.3203 22.8839 41.4666 24.24 43.8868 26.5214C46.307 28.8027 47.8464 31.8635 48.235 35.1667Z" fill="url(#paint2_linear)"/>
<path d="M14.1667 52.6667C12.6833 52.6667 11.2333 53.1065 9.99989 53.9306C8.76652 54.7548 7.80523 55.9261 7.23757 57.2965C6.66991 58.667 6.52139 60.175 6.81078 61.6298C7.10017 63.0847 7.81447 64.4211 8.86337 65.47C9.91226 66.5189 11.2486 67.2332 12.7035 67.5226C14.1583 67.8119 15.6663 67.6634 17.0368 67.0958C18.4072 66.5281 19.5786 65.5668 20.4027 64.3334C21.2268 63.1001 21.6667 61.65 21.6667 60.1667C21.6636 58.1785 20.8724 56.2726 19.4666 54.8668C18.0607 53.4609 16.1548 52.6698 14.1667 52.6667ZM14.1667 66C13.0129 66 11.8851 65.6579 10.9258 65.0169C9.96655 64.3759 9.21888 63.4649 8.77737 62.399C8.33586 61.3331 8.22034 60.1602 8.44542 59.0286C8.6705 57.8971 9.22607 56.8577 10.0419 56.0419C10.8577 55.2261 11.8971 54.6705 13.0286 54.4454C14.1602 54.2203 15.3331 54.3359 16.399 54.7774C17.4649 55.2189 18.3759 55.9666 19.0169 56.9258C19.6579 57.8851 20 59.0129 20 60.1667C19.9982 61.7132 19.3831 63.1959 18.2895 64.2895C17.1959 65.3831 15.7132 65.9982 14.1667 66Z" fill="url(#paint3_linear)"/>
<path d="M16.6667 61.8333C16.664 62.3488 16.5026 62.851 16.2044 63.2715C15.9062 63.692 15.4856 64.0104 15 64.1833V65.1667H13.3333V64.1833C12.8477 64.0104 12.4272 63.692 12.129 63.2715C11.8307 62.851 11.6693 62.3488 11.6667 61.8333H13.3333C13.3333 61.9981 13.3822 62.1593 13.4738 62.2963C13.5653 62.4333 13.6955 62.5402 13.8478 62.6032C14 62.6663 14.1676 62.6828 14.3292 62.6507C14.4909 62.6185 14.6394 62.5391 14.7559 62.4226C14.8725 62.306 14.9518 62.1576 14.984 61.9959C15.0161 61.8343 14.9996 61.6667 14.9366 61.5144C14.8735 61.3622 14.7667 61.232 14.6296 61.1404C14.4926 61.0489 14.3315 61 14.1667 61C13.5804 60.9954 13.0143 60.785 12.5675 60.4054C12.1207 60.0258 11.8215 59.5013 11.7222 58.9234C11.6229 58.3456 11.7298 57.7512 12.0244 57.2443C12.3189 56.7373 12.7822 56.35 13.3333 56.15V55.1667H15V56.15C15.4856 56.323 15.9062 56.6414 16.2044 57.0619C16.5026 57.4823 16.664 57.9845 16.6667 58.5H15C15 58.3352 14.9511 58.1741 14.8596 58.037C14.768 57.9 14.6378 57.7932 14.4856 57.7301C14.3333 57.667 14.1657 57.6505 14.0041 57.6827C13.8424 57.7148 13.694 57.7942 13.5774 57.9107C13.4609 58.0273 13.3815 58.1758 13.3493 58.3374C13.3172 58.4991 13.3337 58.6666 13.3968 58.8189C13.4598 58.9712 13.5666 59.1013 13.7037 59.1929C13.8407 59.2845 14.0018 59.3333 14.1667 59.3333C14.8291 59.3353 15.4638 59.5993 15.9322 60.0678C16.4007 60.5362 16.6647 61.1709 16.6667 61.8333Z" fill="url(#paint4_linear)"/>
<path d="M5 32.6667H13.3333V34.3333H5V32.6667Z" fill="url(#paint5_linear)"/>
<path d="M5 37.6667H13.3333V39.3333H5V37.6667Z" fill="url(#paint6_linear)"/>
<path d="M5 42.6667H13.3333V44.3333H5V42.6667Z" fill="url(#paint7_linear)"/>
<path d="M5 47.6667H13.3333V49.3333H5V47.6667Z" fill="url(#paint8_linear)"/>
<path d="M31.6667 59.3333H35V61H31.6667V59.3333Z" fill="url(#paint9_linear)"/>
<path d="M36.6667 59.3333H50V61H36.6667V59.3333Z" fill="url(#paint10_linear)"/>
<path d="M31.6667 64.3333H35V66H31.6667V64.3333Z" fill="url(#paint11_linear)"/>
<path d="M36.6667 64.3333H50V66H36.6667V64.3333Z" fill="url(#paint12_linear)"/>
<path d="M31.6667 69.3333H35V71H31.6667V69.3333Z" fill="url(#paint13_linear)"/>
<path d="M36.6667 69.3333H50V71H36.6667V69.3333Z" fill="url(#paint14_linear)"/>
<defs>
<linearGradient id="paint0_linear" x1="91.841" y1="0.999956" x2="-1.88432" y2="4.31593" gradientUnits="userSpaceOnUse">
<stop stop-color="#FFF9C6"/>
<stop offset="1" stop-color="#FFD8AB"/>
</linearGradient>
<linearGradient id="paint1_linear" x1="42.0525" y1="21" x2="-1.36234" y2="22.4763" gradientUnits="userSpaceOnUse">
<stop stop-color="#FFF9C6"/>
<stop offset="1" stop-color="#FFD8AB"/>
</linearGradient>
<linearGradient id="paint2_linear" x1="42.0525" y1="21" x2="-1.36234" y2="22.4763" gradientUnits="userSpaceOnUse">
<stop stop-color="#FFF9C6"/>
<stop offset="1" stop-color="#FFD8AB"/>
</linearGradient>
<linearGradient id="paint3_linear" x1="42.0525" y1="21" x2="-1.36234" y2="22.4763" gradientUnits="userSpaceOnUse">
<stop stop-color="#FFF9C6"/>
<stop offset="1" stop-color="#FFD8AB"/>
</linearGradient>
<linearGradient id="paint4_linear" x1="42.0525" y1="21" x2="-1.36234" y2="22.4763" gradientUnits="userSpaceOnUse">
<stop stop-color="#FFF9C6"/>
<stop offset="1" stop-color="#FFD8AB"/>
</linearGradient>
<linearGradient id="paint5_linear" x1="42.0525" y1="21" x2="-1.36234" y2="22.4763" gradientUnits="userSpaceOnUse">
<stop stop-color="#FFF9C6"/>
<stop offset="1" stop-color="#FFD8AB"/>
</linearGradient>
<linearGradient id="paint6_linear" x1="42.0525" y1="21" x2="-1.36234" y2="22.4763" gradientUnits="userSpaceOnUse">
<stop stop-color="#FFF9C6"/>
<stop offset="1" stop-color="#FFD8AB"/>
</linearGradient>
<linearGradient id="paint7_linear" x1="42.0525" y1="21" x2="-1.36234" y2="22.4763" gradientUnits="userSpaceOnUse">
<stop stop-color="#FFF9C6"/>
<stop offset="1" stop-color="#FFD8AB"/>
</linearGradient>
<linearGradient id="paint8_linear" x1="42.0525" y1="21" x2="-1.36234" y2="22.4763" gradientUnits="userSpaceOnUse">
<stop stop-color="#FFF9C6"/>
<stop offset="1" stop-color="#FFD8AB"/>
</linearGradient>
<linearGradient id="paint9_linear" x1="42.0525" y1="21" x2="-1.36234" y2="22.4763" gradientUnits="userSpaceOnUse">
<stop stop-color="#FFF9C6"/>
<stop offset="1" stop-color="#FFD8AB"/>
</linearGradient>
<linearGradient id="paint10_linear" x1="42.0525" y1="21" x2="-1.36234" y2="22.4763" gradientUnits="userSpaceOnUse">
<stop stop-color="#FFF9C6"/>
<stop offset="1" stop-color="#FFD8AB"/>
</linearGradient>
<linearGradient id="paint11_linear" x1="42.0525" y1="21" x2="-1.36234" y2="22.4763" gradientUnits="userSpaceOnUse">
<stop stop-color="#FFF9C6"/>
<stop offset="1" stop-color="#FFD8AB"/>
</linearGradient>
<linearGradient id="paint12_linear" x1="42.0525" y1="21" x2="-1.36234" y2="22.4763" gradientUnits="userSpaceOnUse">
<stop stop-color="#FFF9C6"/>
<stop offset="1" stop-color="#FFD8AB"/>
</linearGradient>
<linearGradient id="paint13_linear" x1="42.0525" y1="21" x2="-1.36234" y2="22.4763" gradientUnits="userSpaceOnUse">
<stop stop-color="#FFF9C6"/>
<stop offset="1" stop-color="#FFD8AB"/>
</linearGradient>
<linearGradient id="paint14_linear" x1="42.0525" y1="21" x2="-1.36234" y2="22.4763" gradientUnits="userSpaceOnUse">
<stop stop-color="#FFF9C6"/>
<stop offset="1" stop-color="#FFD8AB"/>
</linearGradient>
</defs>
</svg>
