<svg width="109" height="105" viewBox="0 0 109 105" fill="none" xmlns="http://www.w3.org/2000/svg">
<path opacity="0.3" d="M32.7037 1L1 104H83.2315L108 52.5L83.2315 1H32.7037Z" stroke="url(#paint0_linear)" stroke-width="0.5"/>
<path d="M35.5 39.411C34.2957 39.411 33.1185 39.7681 32.1171 40.4372C31.1158 41.1063 30.3354 42.0572 29.8745 43.1699C29.4136 44.2825 29.293 45.5068 29.528 46.6879C29.7629 47.8691 30.3429 48.954 31.1944 49.8056C32.046 50.6572 33.1309 51.2371 34.3121 51.472C35.4932 51.707 36.7175 51.5864 37.8302 51.1255C38.9428 50.6647 39.8938 49.8842 40.5628 48.8829C41.2319 47.8816 41.589 46.7043 41.589 45.5C41.5872 43.8857 40.9451 42.338 39.8036 41.1965C38.6621 40.0549 37.1143 39.4128 35.5 39.411ZM35.5 50.2574C34.5591 50.2574 33.6393 49.9784 32.857 49.4556C32.0746 48.9329 31.4649 48.1899 31.1048 47.3206C30.7447 46.4513 30.6505 45.4947 30.8341 44.5719C31.0176 43.6491 31.4707 42.8014 32.136 42.1361C32.8014 41.4707 33.6491 41.0177 34.5719 40.8341C35.4947 40.6505 36.4513 40.7447 37.3206 41.1048C38.1899 41.4649 38.9328 42.0746 39.4556 42.857C39.9783 43.6393 40.2573 44.5591 40.2573 45.5C40.2559 46.7613 39.7543 47.9705 38.8624 48.8624C37.9705 49.7543 36.7613 50.256 35.5 50.2574Z" fill="url(#paint1_linear)"/>
<path d="M34.0943 37.7665C34.1309 37.7666 34.1674 37.7635 34.2035 37.7576C34.6321 37.6868 35.0657 37.6512 35.5 37.651C35.6766 37.651 35.8459 37.5809 35.9708 37.456C36.0957 37.3311 36.1658 37.1618 36.1658 36.9852C36.1658 36.8086 36.0957 36.6392 35.9708 36.5144C35.8459 36.3895 35.6766 36.3194 35.5 36.3194C34.993 36.3196 34.4868 36.3611 33.9866 36.4437C33.8215 36.4707 33.6727 36.5589 33.5697 36.6906C33.4667 36.8224 33.4171 36.9881 33.4306 37.1548C33.4442 37.3215 33.52 37.4769 33.643 37.5903C33.766 37.7036 33.9271 37.7666 34.0943 37.7665Z" fill="url(#paint2_linear)"/>
<path d="M32.2984 38.3322C32.4596 38.2601 32.5855 38.1269 32.6485 37.9619C32.7115 37.7969 32.7064 37.6136 32.6343 37.4524C32.5622 37.2912 32.429 37.1653 32.264 37.1023C32.0991 37.0393 31.9158 37.0444 31.7546 37.1165C30.1369 37.8412 28.7632 39.0182 27.7989 40.5056C26.8346 41.993 26.3208 43.7274 26.3193 45.5C26.3193 45.6766 26.3895 45.846 26.5143 45.9708C26.6392 46.0957 26.8086 46.1658 26.9852 46.1658C27.1617 46.1658 27.3311 46.0957 27.456 45.9708C27.5808 45.846 27.651 45.6766 27.651 45.5C27.6522 43.9844 28.0916 42.5015 28.9161 41.2298C29.7406 39.958 30.9152 38.9518 32.2984 38.3322Z" fill="url(#paint3_linear)"/>
<path d="M55.4818 28.0937C51.4033 23.4118 45.8103 20.3108 39.6789 19.3316C33.5474 18.3525 27.2667 19.5575 21.933 22.7363C16.5993 25.9152 12.5512 30.866 10.4951 36.7249C8.43898 42.5837 8.50549 48.9785 10.683 54.7933C12.8605 60.6082 17.0107 65.4737 22.4094 68.5409C27.8081 71.6082 34.1125 72.6823 40.2223 71.5758C46.332 70.4693 51.8593 67.2526 55.8395 62.4869C59.8197 57.7212 62 51.7092 62 45.5C61.9994 39.1014 59.6842 32.9189 55.4818 28.0937ZM35.5 20.3317C39.0279 20.3325 42.5163 21.0748 45.7389 22.5105C48.9615 23.9462 51.8463 26.0433 54.2062 28.6657L53.0394 31.6989C50.951 29.0444 48.2874 26.8986 45.2493 25.4232C42.2112 23.9477 38.8778 23.1811 35.5003 23.1811C32.1229 23.1811 28.7895 23.9477 25.7514 25.4232C22.7132 26.8986 20.0496 29.0444 17.9613 31.6989L16.7943 28.6657C19.154 26.0431 22.0387 23.946 25.2612 22.5102C28.4837 21.0745 31.9721 20.3323 35.5 20.3317ZM55.8239 40.2431L44.7526 38.0126C43.6369 36.6334 42.227 35.521 40.626 34.7569C39.0251 33.9928 37.2736 33.5963 35.4996 33.5963C33.7257 33.5963 31.9741 33.9928 30.3732 34.7569C28.7722 35.521 27.3623 36.6334 26.2466 38.0126L15.1761 40.2431C15.8028 37.806 16.8669 35.503 18.3166 33.4462C20.2529 30.6867 22.8252 28.4341 25.8161 26.879C28.8071 25.3239 32.1285 24.512 35.4996 24.512C38.8706 24.512 42.1921 25.3239 45.183 26.879C48.1739 28.4341 50.7463 30.6867 52.6825 33.4462C54.1325 35.503 55.1968 37.806 55.8239 40.2431ZM60.6683 45.5C60.6683 50.4778 59.1922 55.3438 56.4267 59.4827C53.6611 63.6216 49.7304 66.8474 45.1315 68.7523C40.5326 70.6572 35.4721 71.1557 30.59 70.1845C25.7078 69.2134 21.2232 66.8164 17.7034 63.2966C13.3305 58.9239 10.7206 53.0942 10.3717 46.9199C10.0229 40.7456 11.9595 34.659 15.812 29.8216L17.0255 32.9762C15.3808 35.3895 14.2309 38.1049 13.6424 40.9654C13.6201 41.0732 13.6249 41.1848 13.6564 41.2902C13.6878 41.3957 13.7449 41.4917 13.8225 41.5697C13.9001 41.6477 13.9959 41.7052 14.1012 41.7372C14.2065 41.7691 14.3181 41.7745 14.426 41.7527L25.166 39.5888C24.1371 41.3891 23.5959 43.4268 23.5959 45.5004C23.5959 47.5739 24.1371 49.6116 25.166 51.4119L14.4265 49.2473C14.3186 49.2256 14.2071 49.2309 14.1017 49.2628C13.9964 49.2947 13.9007 49.3523 13.823 49.4303C13.7454 49.5082 13.6883 49.6043 13.6569 49.7097C13.6254 49.8152 13.6206 49.9268 13.6428 50.0345C14.5433 54.3624 16.7074 58.3257 19.8614 61.4231C23.0154 64.5204 27.0173 66.6124 31.3608 67.4343C31.4569 67.4523 31.5559 67.4489 31.6507 67.4244C31.7454 67.3998 31.8335 67.3546 31.9088 67.2921C31.9841 67.2296 32.0447 67.1513 32.0863 67.0627C32.1278 66.9741 32.1494 66.8774 32.1493 66.7795V56.9231C34.3368 57.564 36.6623 57.564 38.8498 56.9231V66.7799C38.8497 66.8777 38.8713 66.9744 38.9128 67.063C38.9544 67.1516 39.015 67.2299 39.0903 67.2925C39.1656 67.355 39.2537 67.4001 39.3485 67.4247C39.4432 67.4493 39.5422 67.4527 39.6384 67.4346C43.9819 66.6129 47.9841 64.521 51.1382 61.4236C54.2924 58.3263 56.4567 54.3628 57.3572 50.0349C57.3794 49.9271 57.3746 49.8155 57.3431 49.7101C57.3117 49.6046 57.2546 49.5086 57.177 49.4306C57.0994 49.3527 57.0036 49.2951 56.8983 49.2632C56.793 49.2313 56.6815 49.2259 56.5736 49.2476L45.8336 51.4116C46.8683 49.6137 47.41 47.5744 47.4039 45.5C47.404 44.8317 47.3483 44.1645 47.2375 43.5054C47.2233 43.4189 47.1921 43.3359 47.1458 43.2614C47.0995 43.1869 47.0389 43.1223 46.9675 43.0713C46.8962 43.0203 46.8154 42.9839 46.7299 42.9642C46.6444 42.9445 46.5559 42.9419 46.4694 42.9565C46.3829 42.9711 46.3002 43.0027 46.2259 43.0494C46.1516 43.0961 46.0873 43.157 46.0367 43.2287C45.9861 43.3003 45.9501 43.3812 45.9308 43.4668C45.9115 43.5524 45.9094 43.6409 45.9244 43.7274C46.0228 44.3131 46.0723 44.9061 46.0723 45.5C46.0804 47.8453 45.3007 50.1253 43.8582 51.9744C42.8706 53.2507 41.604 54.2839 40.1553 54.9947C38.7066 55.7056 37.1143 56.0752 35.5006 56.0753C33.8869 56.0754 32.2946 55.7059 30.8458 54.9952C29.397 54.2844 28.1302 53.2514 27.1426 51.9752C26.2898 50.877 25.662 49.6214 25.2951 48.2802C24.9282 46.939 24.8295 45.5387 25.0046 44.1593C25.1798 42.7799 25.6253 41.4486 26.3156 40.2417C27.006 39.0347 27.9276 37.9758 29.0278 37.1256C30.128 36.2753 31.3851 35.6504 32.7272 35.2867C34.0692 34.923 35.4698 34.8276 36.8488 35.006C38.2277 35.1843 39.558 35.633 40.7633 36.3262C41.9686 37.0194 43.0254 37.9435 43.873 39.0457C44.2799 39.5725 44.6363 40.1364 44.9375 40.73C45.0197 40.8832 45.1586 40.9982 45.3245 41.0503C45.4904 41.1024 45.6701 41.0876 45.8252 41.0089C45.9803 40.9303 46.0984 40.7941 46.1544 40.6295C46.2104 40.4649 46.1998 40.2849 46.1249 40.128C46.0325 39.9457 45.9342 39.766 45.8322 39.5884L56.5736 41.7523C56.6815 41.7741 56.7931 41.7687 56.8984 41.7368C57.0037 41.7049 57.0995 41.6473 57.1771 41.5693C57.2548 41.4913 57.3119 41.3953 57.3433 41.2898C57.3747 41.1844 57.3795 41.0727 57.3573 40.965C56.7688 38.1045 55.6189 35.389 53.9742 32.9758L55.188 29.821C58.7372 34.2761 60.6694 39.8039 60.6683 45.5ZM26.249 52.9886C27.4678 54.496 29.0362 55.6829 30.8181 56.4461V65.9619C27.0692 65.1012 23.6284 63.2284 20.8703 60.5474C18.1123 57.8664 16.1427 54.4799 15.1762 50.757L26.249 52.9886ZM40.1819 65.9619V56.4468C41.9641 55.6828 43.5329 54.4954 44.7521 52.9876L55.8238 50.7571C54.8573 54.48 52.8877 57.8664 50.1296 60.5474C47.3716 63.2284 43.9308 65.1012 40.1819 65.9619Z" fill="url(#paint4_linear)"/>
<defs>
<linearGradient id="paint0_linear" x1="90.9923" y1="0.999956" x2="-1.90691" y2="4.28174" gradientUnits="userSpaceOnUse">
<stop stop-color="#FFF9C6"/>
<stop offset="1" stop-color="#FFD8AB"/>
</linearGradient>
<linearGradient id="paint1_linear" x1="53.5756" y1="19" x2="7.55592" y2="20.5649" gradientUnits="userSpaceOnUse">
<stop stop-color="#FFF9C6"/>
<stop offset="1" stop-color="#FFD8AB"/>
</linearGradient>
<linearGradient id="paint2_linear" x1="53.5756" y1="19" x2="7.55592" y2="20.5649" gradientUnits="userSpaceOnUse">
<stop stop-color="#FFF9C6"/>
<stop offset="1" stop-color="#FFD8AB"/>
</linearGradient>
<linearGradient id="paint3_linear" x1="53.5756" y1="19" x2="7.55592" y2="20.5649" gradientUnits="userSpaceOnUse">
<stop stop-color="#FFF9C6"/>
<stop offset="1" stop-color="#FFD8AB"/>
</linearGradient>
<linearGradient id="paint4_linear" x1="53.5756" y1="19" x2="7.55592" y2="20.5649" gradientUnits="userSpaceOnUse">
<stop stop-color="#FFF9C6"/>
<stop offset="1" stop-color="#FFD8AB"/>
</linearGradient>
</defs>
</svg>
