<svg width="15" height="15" viewBox="0 0 15 15" fill="none" xmlns="http://www.w3.org/2000/svg">
<path fill-rule="evenodd" clip-rule="evenodd" d="M6.68521 0.0522564C4.37284 0.366009 2.54493 1.47724 1.28418 3.33571C0.647776 4.27379 0.257941 5.3149 0.0737768 6.56807C-0.0245923 7.23755 -0.0245923 7.76073 0.0737768 8.43021C0.336184 10.2158 1.06947 11.6923 2.26768 12.8478C3.53364 14.0685 5.04134 14.7601 6.89605 14.9707C7.92759 15.0879 9.37491 14.8466 10.5089 14.3683C12.0524 13.7174 13.4768 12.367 14.2136 10.8561C14.6812 9.8971 14.7087 9.46044 14.3135 9.27212C14.2036 9.2198 14.1579 9.21708 14.03 9.25535C13.8157 9.3195 13.6557 9.52463 13.4383 10.0136C13.0806 10.8182 12.6679 11.4199 12.0508 12.0363C10.8475 13.2386 9.41275 13.8606 7.7011 13.922C6.33356 13.971 5.0602 13.5997 3.88671 12.8095C3.36404 12.4576 2.53772 11.6157 2.16932 11.0598C1.54318 10.1148 1.22085 9.18108 1.10201 7.9677C1.05022 7.43897 1.09093 6.84138 1.22277 6.19511C1.61859 4.25452 2.92042 2.60851 4.76644 1.71447C5.52341 1.3479 6.10661 1.18942 7.04311 1.09589C7.57187 1.04308 8.1517 1.08364 8.8287 1.22079C10.014 1.46097 11.063 2.02218 11.9687 2.90058C13.0913 3.98941 13.6881 5.17047 13.8901 6.70315C13.9242 6.96191 13.971 7.26827 13.9941 7.38401C14.0808 7.81791 14.4684 8.02136 14.7528 7.78225C14.9959 7.57789 15.0452 7.32576 14.9635 6.70365C14.8419 5.77695 14.6266 5.01903 14.2809 4.3011C13.5135 2.70759 12.3131 1.50145 10.7517 0.75529C9.46442 0.140078 7.95776 -0.1204 6.68521 0.0522564ZM7.21616 3.16849C7.04794 3.27098 6.91982 3.47179 6.53022 4.24365C6.00088 5.29222 5.93168 5.34236 4.7876 5.50682C3.79448 5.64956 3.60203 5.70893 3.45386 5.91839C3.20921 6.26416 3.31306 6.47094 4.18213 7.36862C4.73328 7.93791 4.86419 8.09459 4.9161 8.24676C5.00285 8.50111 4.99963 8.55461 4.84085 9.49648C4.69237 10.3773 4.68976 10.56 4.82252 10.7781C4.86158 10.8423 4.95865 10.9257 5.03824 10.9634C5.26752 11.0721 5.50083 11.0242 5.99517 10.7671C7.23191 10.1239 7.13922 10.161 7.50942 10.161C7.87998 10.161 7.78931 10.1246 9.03714 10.7744C9.42045 10.9741 9.49885 11.0012 9.69547 11.0023C9.93695 11.0037 10.0593 10.9413 10.2097 10.7398C10.3196 10.5927 10.3096 10.1963 10.1788 9.50989C9.9432 8.27326 9.9348 8.3008 10.834 7.37003C11.6335 6.54237 11.7263 6.3961 11.643 6.09457C11.5924 5.91172 11.4264 5.75826 11.198 5.68342C11.0986 5.65079 10.6762 5.57239 10.2595 5.50919C9.3848 5.37656 9.18523 5.30662 8.96357 5.05507C8.87942 4.95951 8.66198 4.58708 8.48043 4.22737C7.97842 3.23287 7.86016 3.09492 7.50942 3.09492C7.40676 3.09492 7.28804 3.12472 7.21616 3.16849ZM7.6395 5.21612C7.73373 5.25546 7.81534 5.34818 7.95136 5.5704C8.29431 6.13065 8.49262 6.27611 9.09299 6.40798C9.74002 6.55007 9.79181 6.84149 9.27087 7.40917C8.97645 7.72994 8.94701 7.8281 8.94701 8.48862V9.07595L8.83426 9.17292C8.73804 9.25565 8.69583 9.26676 8.54675 9.24872C8.4506 9.23712 8.25122 9.17089 8.10363 9.10161C7.86602 8.99004 7.79794 8.9756 7.50942 8.9756C7.22091 8.9756 7.15283 8.99004 6.91522 9.10161C6.76763 9.17089 6.56825 9.23712 6.4721 9.24872C6.32301 9.26676 6.28081 9.25565 6.18458 9.17292L6.07184 9.07599V8.48862C6.07184 7.8281 6.0424 7.72994 5.74798 7.40917C5.25138 6.868 5.28592 6.5385 5.85103 6.42713C6.25083 6.3483 6.45477 6.27799 6.59765 6.16971C6.76249 6.04478 6.81743 5.97457 7.06626 5.57051C7.19496 5.36155 7.28804 5.25377 7.37092 5.21773C7.51893 5.15339 7.48964 5.15354 7.6395 5.21612Z" fill="url(#paint0_linear)"/>
<defs>
<linearGradient id="paint0_linear" x1="12.6157" y1="-6.35746e-06" x2="-0.408702" y2="0.442899" gradientUnits="userSpaceOnUse">
<stop stop-color="#FFF9C6"/>
<stop offset="1" stop-color="#FFD8AB"/>
</linearGradient>
</defs>
</svg>
